<svg width="400" height="58" viewBox="0 0 400 58" fill="none" xmlns="http://www.w3.org/2000/svg">
<g clip-path="url(#clip0_7378_327296)">
<path d="M28.7504 19.0362V10.3212C28.7504 -0.758678 18.1715 0.0114725 15.8983 0.0114725H0V57.2488H15.8983C18.1715 57.2488 28.7504 58.019 28.7504 46.9362V38.2212C28.7504 30.9148 25.5094 29.1369 24.4788 28.6273C25.5094 28.1177 28.7504 26.3397 28.7504 19.0333V19.0362ZM9.29334 8.45449H15.7065C18.7871 8.45449 19.4198 9.5224 19.4198 11.6267V21.1978C19.4198 23.179 18.2918 24.4072 15.7437 24.4072H9.29334V8.45449ZM19.4198 45.6307C19.4198 47.735 18.7871 48.8029 15.7065 48.8029H9.29334V32.8502H15.7437C18.2918 32.8502 19.4198 34.0785 19.4198 36.0597V45.6307Z" fill="white"/>
<path d="M342.505 10.3238C342.505 -0.758919 331.926 0.0112307 329.653 0.0112307H313.755V57.2486H329.653C331.926 57.2486 342.505 58.0187 342.505 46.936V10.3238ZM333.174 45.6305C333.174 47.7348 332.542 48.8027 329.461 48.8027H323.048V8.4428H329.498C332.046 8.4428 333.174 9.67103 333.174 11.6522V45.6305Z" fill="white"/>
<path d="M190.202 -0.000236511V8.44279H175.723V24.4069H189.343V32.85H175.723V48.8141H190.202V57.26H166.43V-0.000236511H190.202Z" fill="white"/>
<path d="M275.668 -0.000236511V8.44279H261.19V24.4069H274.809V32.85H261.19V48.8141H275.668V57.26H251.896V-0.000236511H275.668Z" fill="white"/>
<path d="M223.515 -0.000236511V8.44279H209.037V24.4069H222.657V32.85H209.037V57.26H199.744V-0.000236511H223.515Z" fill="white"/>
<path d="M294.504 -0.000236511V48.8141H308.982V57.26H285.21V-0.000236511H294.504Z" fill="white"/>
<path d="M147.182 -0.000236511V48.8141H161.66V57.26H137.888V-0.000236511H147.182Z" fill="white"/>
<path d="M242.354 -0.000236511V57.26H233.061V-0.000236511H242.354Z" fill="white"/>
<path d="M58.9724 57.26H68.2257L59.3647 -0.000236511H42.3813L33.5203 57.26H42.7735L44.9981 41.2958H56.7507L58.9753 57.26H58.9724ZM46.1776 32.8528L49.5818 8.44565H52.1585L55.5626 32.8528H46.1748H46.1776Z" fill="white"/>
<path d="M131.853 -0.000236511H101.886V8.44565H112.221V57.26H121.515V8.44565H131.853V-0.000236511Z" fill="white"/>
<path d="M98.8685 -0.000236511H68.9014V8.44565H79.2368V57.26H88.5302V8.44565H98.8685V-0.000236511Z" fill="white"/>
<path d="M347.155 0.718379V4.29428H346.402V0.718379H344.953V-0.000236511H348.606V0.718379H347.157H347.155Z" fill="white"/>
<path d="M352.317 4.30257V1.36512L351.461 3.24612H350.965L350.109 1.37085V4.29971H349.356V0.00805664H350.218L351.223 2.12669L352.213 0.00805664H353.07V4.30257H352.317Z" fill="white"/>
<path d="M387.154 22.1366H383.34L392.699 -0.000236511H382.587L371.968 25.2744C371.461 26.5628 371.252 27.4875 371.252 28.8532V46.9303C371.252 58.0187 381.834 57.2514 384.099 57.2514H387.156C389.421 57.2514 400.003 58.0187 400.003 46.9303V32.4463C400.003 21.3721 389.421 22.1394 387.156 22.1394L387.154 22.1366ZM390.669 48.8027H380.583V30.5825H390.669V48.8027Z" fill="white"/>
</g>
<defs>
<clipPath id="clip0_7378_327296">
<rect width="400" height="57.2602" fill="white"/>
</clipPath>
</defs>
<script xmlns=""/></svg>