<svg viewBox="0 0 128 128" xmlns="http://www.w3.org/2000/svg">
    <g fill="currentColor">
        <path
            d="M64.07 31.17c-10.92 0-19.78 8.85-19.78 19.78 0 10.92 8.85 19.78 19.78 19.78 10.92 0 19.78-8.85 19.78-19.78S75 31.17 64.07 31.17Zm10.26 26.32H54.41l-4.27-11.07 8.54 3.69 5.69-11.07 5.69 11.07 8.54-3.69-4.27 11.07ZM35.55 34.2l11.69-11.69V34.2H35.55zM92.51 34.2 80.82 22.51V34.2h11.69zM35.49 67.8l11.69 11.69V67.8H35.49zM92.45 67.8 80.76 79.49V67.8h11.69z">
        </path>
    </g>
    <g fill="currentColor">
        <path d="M104 8.43v80.26l-40 30.37-40-30.37V8.43h80m2-2H22v83.25l42 31.89 42-31.89V6.43Z"></path>
        <path d="M98.29 14v71.94L64 111.5 29.71 85.94V14h68.58m2-2H27.71v74.95L64 114l36.29-27.05V12Z"></path>
    </g>
</svg>