<svg viewBox="0 0 128 128" xmlns="http://www.w3.org/2000/svg">
    <path
        d="m66.33 71.2 13.92 13.76 2.04-1.89-13.98-13.83-1.98 1.96ZM45.58 83.11 47.62 85l31.51-31.15v4.01l-2.53 2.5v12.21l12.13-11.99v-4.23l2.53-2.5v-15.9L45.57 83.11Zm5.82-10.55V60.35l-2.53-2.5v-4.01L59.1 63.95l1.98-1.96-24.34-24.05v15.9l2.53 2.5v4.23L51.4 72.56Zm27.24-30.92L63.98 27 49.36 41.64l14.62 14.64 14.66-14.64Zm-14.66-9.79 9.9 9.78-9.9 9.98V31.85Z"
        fill="currentColor"></path>
    <path
        d="M102 15.44v83.01c-6.99 8.74-21.39 14.12-38 14.12s-30.99-5.38-38-14.12V15.44h76m4-4H22v88.35c8.03 11.19 25.02 16.77 42 16.77s33.99-5.6 42-16.77V11.44Z"
        fill="currentColor"></path>
</svg>