<svg viewBox="0 0 128 128" xmlns="http://www.w3.org/2000/svg">
  <path fill="currentColor"
    d="M 54.950,113.860 C 47.237,106.167 39.523,98.473 31.810,90.780 31.810,87.447 31.810,84.113 31.810,80.780 28.853,77.787 25.897,74.793 22.940,71.800 22.940,85.820 22.940,99.840 22.940,113.860 19.960,113.860 16.980,113.860 14.000,113.860 14.000,80.620 14.000,47.380 14.000,14.140 16.603,16.700 19.207,19.260 21.810,21.820 21.810,21.813 21.810,21.807 21.810,21.800 29.887,29.923 37.963,38.047 46.040,46.170 46.040,49.847 46.040,53.523 46.040,57.200 49.010,60.220 51.980,63.240 54.950,66.260 54.950,82.127 54.950,97.993 54.950,113.860 54.950,113.860 54.950,113.860 54.950,113.860 Z " />
  <path fill="currentColor"
    d="M 75.560,57.200 C 75.560,53.523 75.560,49.847 75.560,46.170 67.483,38.047 59.407,29.923 51.330,21.800 51.330,21.807 51.330,21.813 51.330,21.820 48.727,19.260 46.123,16.700 43.520,14.140 43.520,20.940 43.520,27.740 43.520,34.540 47.377,38.417 51.233,42.293 55.090,46.170 55.090,49.847 55.090,53.523 55.090,57.200 58.060,60.220 61.030,63.240 64.000,66.260 64.000,75.320 64.000,84.380 64.000,93.440 70.827,100.247 77.653,107.053 84.480,113.860 84.480,97.870 84.480,81.880 84.480,65.890 81.507,62.993 78.533,60.097 75.560,57.200 75.560,57.200 75.560,57.200 75.560,57.200 Z " />
  <path fill="currentColor"
    d="M 105.090,57.200 C 105.090,53.523 105.090,49.847 105.090,46.170 97.013,38.047 88.937,29.923 80.860,21.800 80.860,21.807 80.860,21.813 80.860,21.820 78.257,19.260 75.653,16.700 73.050,14.140 73.050,20.940 73.050,27.740 73.050,34.540 76.903,38.417 80.757,42.293 84.610,46.170 84.610,49.847 84.610,53.523 84.610,57.200 87.580,60.220 90.550,63.240 93.520,66.260 93.520,75.320 93.520,84.380 93.520,93.440 100.347,100.247 107.173,107.053 114.000,113.860 114.000,97.870 114.000,81.880 114.000,65.890 111.030,62.993 108.060,60.097 105.090,57.200 105.090,57.200 105.090,57.200 105.090,57.200 Z " />
</svg>