<svg fill="none" viewBox="0 0 128 128" id="icon-mode-escalation-framed" xmlns="http://www.w3.org/2000/svg">
    <path
        d="M106 99.79c-8.01 11.17-25.02 16.77-42 16.77s-33.97-5.58-42-16.77V11.44h84v88.35zm-80-1.34c7.01 8.74 21.39 14.12 38 14.12s31.01-5.38 38-14.12V15.44H26v83.01zm18.65-19.82h-3.28V33.37h3.28v45.26zm41.979 0h-3.11V33.37h3.11v45.26zm-5.62-45.26v45.25h-33.94V33.37h33.94zm-28.87 39.66h2.4v-15.2L63 60.95v2.36l13.51 4.93v-19.8l-7.84-2.89v-2.36l-16.53-5.58v35.42z"
        fill="currentColor"></path>
</svg>