<svg viewBox="0 0 128 128" xmlns="http://www.w3.org/2000/svg">
  <path fill="currentColor"
    d="M 15.000,15.000 C 16.743,15.000 18.487,15.000 20.230,15.000 20.230,47.667 20.230,80.333 20.230,113.000 18.487,113.000 16.743,113.000 15.000,113.000 15.000,80.333 15.000,47.667 15.000,15.000 Z " />
  <path fill="currentColor"
    d="M 21.230,14.000 C 18.820,14.000 16.410,14.000 14.000,14.000 14.000,47.333 14.000,80.667 14.000,114.000 16.410,114.000 18.820,114.000 21.230,114.000 21.230,80.667 21.230,47.333 21.230,14.000 21.230,14.000 21.230,14.000 21.230,14.000 21.230,14.000 21.230,14.000 21.230,14.000 Z M 19.230,16.000 C 19.230,48.000 19.230,80.000 19.230,112.000 18.153,112.000 17.077,112.000 16.000,112.000 16.000,80.000 16.000,48.000 16.000,16.000 17.077,16.000 18.153,16.000 19.230,16.000 " />
  <path fill="currentColor"
    d="M 108.140,15.000 C 109.760,15.000 111.380,15.000 113.000,15.000 113.000,47.667 113.000,80.333 113.000,113.000 111.380,113.000 109.760,113.000 108.140,113.000 108.140,80.333 108.140,47.667 108.140,15.000 Z " />
  <path fill="currentColor"
    d="M 114.000,14.000 C 111.713,14.000 109.427,14.000 107.140,14.000 107.140,47.333 107.140,80.667 107.140,114.000 109.427,114.000 111.713,114.000 114.000,114.000 114.000,80.667 114.000,47.333 114.000,14.000 114.000,14.000 114.000,14.000 114.000,14.000 114.000,14.000 114.000,14.000 114.000,14.000 Z M 112.000,16.000 C 112.000,48.000 112.000,80.000 112.000,112.000 111.047,112.000 110.093,112.000 109.140,112.000 109.140,80.000 109.140,48.000 109.140,16.000 110.093,16.000 111.047,16.000 112.000,16.000 " />
  <path fill="currentColor"
    d="M 91.650,91.040 C 81.700,87.410 71.750,83.780 61.800,80.150 61.800,78.410 61.800,76.670 61.800,74.930 55.567,72.630 49.333,70.330 43.100,68.030 43.100,79.227 43.100,90.423 43.100,101.620 41.330,101.620 39.560,101.620 37.790,101.620 37.790,75.530 37.790,49.440 37.790,23.350 49.967,27.460 62.143,31.570 74.320,35.680 74.320,37.420 74.320,39.160 74.320,40.900 80.097,43.027 85.873,45.153 91.650,47.280 91.650,61.870 91.650,76.460 91.650,91.050 91.650,91.047 91.650,91.043 91.650,91.040 Z M 26.600,14.000 C 26.600,47.333 26.600,80.667 26.600,114.000 26.600,114.000 101.590,114.000 101.590,114.000 101.590,80.667 101.590,47.333 101.590,14.000 76.593,14.000 51.597,14.000 26.600,14.000 26.600,14.000 26.600,14.000 26.600,14.000 Z " />
</svg>