<svg viewBox="0 0 128 128" xmlns="http://www.w3.org/2000/svg">
    <g fill="currentColor">
        <path
            d="M42.29 27.47v36.19h7.24V56.4h7.24v-7.24h14.48v7.24h7.24v7.24h7.24V27.47H42.3Zm25.84 17.26L64 41.9l-4.13 2.83 1.42-4.8-3.97-3.05 5-.13 1.67-4.72 1.67 4.72 5 .13-3.97 3.05 1.42 4.8ZM42.28 70.91h43.44v3.62H42.28z">
        </path>
    </g>
    <g fill="currentColor">
        <path d="M104 8.43v80.26l-40 30.37-40-30.37V8.43h80m2-2H22v83.25l42 31.89 42-31.89V6.43Z"></path>
        <path d="M98.29 14v71.94L64 111.5 29.71 85.94V14h68.58m2-2H27.71v74.95L64 114l36.29-27.05V12Z"></path>
    </g>
</svg>