<svg viewBox="0 0 128 128" xmlns="http://www.w3.org/2000/svg">
  <path fill="currentColor"
    d="M 76.830,47.600 C 68.277,47.600 59.723,47.600 51.170,47.600 49.127,42.300 47.083,37.000 45.040,31.700 48.900,33.367 52.760,35.033 56.620,36.700 59.083,31.913 61.547,27.127 64.010,22.340 66.473,27.127 68.937,31.913 71.400,36.700 75.260,35.033 79.120,33.367 82.980,31.700 80.937,37.000 78.893,42.300 76.850,47.600 76.843,47.600 76.837,47.600 76.830,47.600 Z M 14.000,14.000 C 14.000,42.980 14.000,71.960 14.000,100.940 14.000,100.940 64.020,50.960 64.020,50.960 80.680,67.620 97.340,84.280 114.000,100.940 114.000,71.960 114.000,42.980 114.000,14.000 80.667,14.000 47.333,14.000 14.000,14.000 14.000,14.000 14.000,14.000 14.000,14.000 Z " />
  <path fill="currentColor"
    d="M 21.540,114.000 C 49.847,114.000 78.153,114.000 106.460,114.000 92.307,99.847 78.153,85.693 64.000,71.540 49.847,85.693 35.693,99.847 21.540,114.000 21.540,114.000 21.540,114.000 21.540,114.000 Z " />
</svg>