<svg viewBox="0 0 128 128" xmlns="http://www.w3.org/2000/svg">
    <path
        d="M102.03 8.5v80.37L64 119.51 25.97 88.87V8.5l37.02 9.61 1.01.26 1.01-.26 37.02-9.61m4-5.17L64 14.24 21.97 3.33v87.46L64 124.65l42.03-33.86V3.33z"
        fill="currentColor"></path>
    <path
        d="M45.52 50.82c-1.38 2.8-2.11 5.89-2.11 9.1s.77 6.48 2.23 9.33l-2.53 2.53c-2.04-3.57-3.12-7.63-3.12-11.86s1.04-8.12 3-11.64l2.53 2.53zM84.94 71.7c2.01-3.56 3.08-7.58 3.08-11.77s-1.03-8.05-2.95-11.55l-2.54 2.54c1.35 2.77 2.07 5.84 2.07 9.02s-.76 6.41-2.19 9.24l2.53 2.53zm.82 5.66v4.44h-4.42l-9.08-9.08c-2.38 1.54-5.22 2.44-8.27 2.44s-5.82-.88-8.19-2.39l-9.14 9.14h-4.44v-4.42l2.83-2.83 2.44-2.44 3.84-3.84c-1.62-2.42-2.57-5.34-2.57-8.47s.9-5.88 2.44-8.27l-3.85-3.85-2.44-2.44-2.8-2.8v-4.18h4.69l8.82 8.82c2.41-1.59 5.29-2.52 8.39-2.52s6.05.95 8.47 2.57l8.99-8.99h4.18v4.69l-2.49 2.49-2.45 2.45-3.85 3.85c1.51 2.37 2.39 5.17 2.39 8.19s-.93 5.99-2.52 8.39l3.84 3.84 2.44 2.44 2.76 2.76zM73.54 59.93c0-5.26-4.28-9.54-9.54-9.54s-9.54 4.28-9.54 9.54 4.28 9.54 9.54 9.54 9.54-4.28 9.54-9.54zM64 78.32l8.65 8.65H55.36l8.65-8.65zm4.03 6.73L64 81.02l-4.03 4.03h8.07zm4.62-52.09H55.36l8.65 8.65 8.65-8.65z"
        fill="currentColor"></path>
</svg>