<svg viewBox="0 0 128 128" id="icon-mode-obliteration" xmlns="http://www.w3.org/2000/svg">
    <path
        d="M26.35 45.38c-2.81 5.69-4.31 12-4.31 18.54s1.58 13.19 4.54 19.01l-5.14 5.14c-4.15-7.28-6.37-15.54-6.37-24.15s2.13-16.54 6.11-23.71l5.16 5.16zm80.3 42.52c4.09-7.25 6.27-15.45 6.27-23.98s-2.09-16.41-6.02-23.54l-5.17 5.17c2.76 5.65 4.22 11.89 4.22 18.37s-1.55 13.05-4.46 18.83l5.15 5.15zm1.68 11.54.02 9.05-9.02.02-18.5-18.5c-4.85 3.14-10.63 4.97-16.84 4.97s-11.86-1.79-16.68-4.86l-18.62 18.62-9.05.02-.02-9.02 5.76-5.76 4.96-4.96 7.83-7.83c-3.31-4.94-5.24-10.87-5.24-17.26s1.83-11.98 4.97-16.84l-7.84-7.84-4.98-4.98-5.7-5.7.02-8.52h9.53l17.96 17.97c4.9-3.24 10.78-5.14 17.1-5.14s12.32 1.93 17.26 5.24L99.57 19.8l8.52.02v9.53l-5.08 5.07-4.98 4.98-7.85 7.85c3.07 4.82 4.86 10.54 4.86 16.68s-1.89 12.2-5.14 17.1l7.83 7.83 4.97 4.97 5.62 5.62zM83.44 63.93c0-10.72-8.72-19.44-19.44-19.44s-19.44 8.72-19.44 19.44S53.28 83.37 64 83.37s19.44-8.72 19.44-19.44zM64 101.39 81.61 119H46.38l17.61-17.61zm8.22 13.72L64 106.89l-8.22 8.22h16.43zM81.61 9H46.38l17.61 17.61L81.6 9z"
        fill="currentColor"></path>
</svg>