<svg viewBox="0 0 128 128" xmlns="http://www.w3.org/2000/svg">
    <path
        d="M39.11 64c0 6.84 3.95 12.76 9.69 15.61V48.4c-5.74 2.85-9.69 8.76-9.69 15.61ZM88.89 64c0 6.84-3.95 12.76-9.69 15.61V48.4c5.74 2.85 9.69 8.76 9.69 15.61ZM80.18 25.66l-14.16-5.51v-9.11l2.03-2.24V6.99h-8.1V8.8l2.03 2.24v9.11l-14.16 5.51v3.58h10.11v85.66L64 121l6.07-6.1V29.24h10.11v-3.58Z"
        fill="currentColor"></path>
    <path
        d="M40.55 88.54c-6.11-6.05-9.9-14.43-9.9-23.68s3.74-17.48 9.75-23.51l-8.78-8.78c-8.26 8.27-13.37 19.68-13.37 32.3s5.18 24.17 13.53 32.45l8.77-8.77ZM96.4 32.59l-8.78 8.78c6 6.03 9.73 14.33 9.73 23.49s-3.78 17.61-9.88 23.66l8.77 8.77c8.34-8.28 13.51-19.75 13.51-32.43s-5.1-24-13.34-32.27Z"
        fill="currentColor"></path>
</svg>