<svg viewBox="0 0 128 128" xmlns="http://www.w3.org/2000/svg">
    <g fill="currentColor">
        <path
            d="M50.03 56c0 3.84 2.22 7.16 5.44 8.76V47.24c-3.22 1.6-5.44 4.92-5.44 8.76ZM77.97 56c0 3.84-2.22 7.16-5.44 8.76V47.24c3.22 1.6 5.44 4.92 5.44 8.76ZM73.08 34.48l-7.95-3.09v-5.11l1.14-1.26v-1.01h-4.55v1.01l1.14 1.26v5.11l-7.95 3.09v2.01h5.68v48.09L64 88l3.41-3.42V36.49h5.68v-2.01Z">
        </path>
        <path
            d="M50.84 69.78c-3.43-3.39-5.56-8.1-5.56-13.3s2.1-9.81 5.47-13.2l-4.93-4.93c-4.64 4.64-7.5 11.05-7.5 18.13s2.91 13.57 7.59 18.22l4.92-4.92ZM82.19 38.37l-4.93 4.93c3.37 3.39 5.46 8.04 5.46 13.19s-2.12 9.89-5.55 13.28l4.92 4.92c4.68-4.65 7.58-11.09 7.58-18.21S86.81 43 82.18 38.36Z">
        </path>
    </g>
    <path d="M102 12.14v73.85l-38 28.85-38-28.85V12.14h76m4-4H22v79.83l42 31.89 42-31.89V8.14Z" fill="currentColor">
    </path>
</svg>