<svg viewBox="0 0 128 128" id="icon-mode-sdm-framed" xmlns="http://www.w3.org/2000/svg">
    <path
        d="m64.03 7.74 38 17.59v76.94l-38 17.98-38.05-17.98V25.33L64.03 7.74m0-4.41L21.97 22.77v82.03l42.05 19.87 42-19.87V22.77L64.03 3.33z"
        fill="currentColor"></path>
    <path
        d="m85.24 50.6-7.87-7.87h7.87v7.87zm2.63 6.37V40.1H71l16.87 16.87zm-10.5 28.3 7.87-7.87v7.87h-7.87zM71 87.9h16.87V71.03L71 87.9zm-20.32-2.63-7.87-7.87v7.87h7.87zm6.37 2.63H40.18V71.03L57.05 87.9zM57 40.14H40.13v16.87L57 40.14zm19.45 18.17c.11-.43.06-.89-.14-1.29l-1.58-3.16c-.15-.29-.36-.54-.63-.72l-5.44-3.63c-.31-.2-.67-.31-1.04-.31h-7.3c-.37 0-.73.11-1.04.31l-5.44 3.63c-.27.18-.49.43-.63.72l-1.58 3.16c-.2.4-.25.86-.14 1.29l1.94 7.76 1.25-5.23-.2 5.23-2.69 3.59c-.28.37-.28.88 0 1.25l2.37 3.16c.2.27.52.43.86.43h2.63l1.05 3.16 5.27 1.05 5.27-1.05 1.05-3.16h2.63c.34 0 .66-.16.86-.43l2.37-3.16c.28-.37.28-.88 0-1.25l-2.69-3.59-.2-5.23 1.25 5.23 1.94-7.76zM60.29 69.75c-.34.34-.82.47-1.28.36l-2.79-.7a.91.91 0 0 1-.69-.88v-2.19c0-.17.07-.33.19-.45l.61-.61c.16-.16.39-.22.6-.17l3.87.97 1.05 2.11-1.57 1.57zm5.24 2.92-1.57.78-1.57-.78a.536.536 0 0 1-.21-.77l1.77-2.66 1.77 2.66c.18.27.08.63-.21.77zm6.87-4.14c0 .42-.28.78-.69.88l-2.79.7c-.46.12-.95-.02-1.28-.36l-1.57-1.57 1.05-2.11 3.87-.97c.22-.05.44 0 .6.17l.61.61c.12.12.19.28.19.45v2.19z"
        fill="currentColor"></path>
</svg>