<svg viewBox="0 0 128 128" xmlns="http://www.w3.org/2000/svg">
  <path fill="currentColor"
    d="M 113.940,49.290 C 113.940,37.527 113.940,25.763 113.940,14.000 102.177,14.000 90.413,14.000 78.650,14.000 90.413,25.763 102.177,37.527 113.940,49.290 113.940,49.290 113.940,49.290 113.940,49.290 113.940,49.290 113.940,49.290 113.940,49.290 Z M 108.420,35.980 C 102.933,30.493 97.447,25.007 91.960,19.520 97.447,19.520 102.933,19.520 108.420,19.520 108.420,25.007 108.420,30.493 108.420,35.980 108.420,35.980 108.420,35.980 108.420,35.980 Z " />
  <path fill="currentColor"
    d="M 78.650,114.000 C 90.413,114.000 102.177,114.000 113.940,114.000 113.940,102.237 113.940,90.473 113.940,78.710 102.177,90.473 90.413,102.237 78.650,114.000 78.650,114.000 78.650,114.000 78.650,114.000 78.650,114.000 78.650,114.000 78.650,114.000 Z M 91.960,108.490 C 97.447,103.003 102.933,97.517 108.420,92.030 108.420,97.517 108.420,103.003 108.420,108.490 108.420,108.490 91.960,108.490 91.960,108.490 91.960,108.490 91.960,108.490 91.960,108.490 Z " />
  <path fill="currentColor"
    d="M 49.460,114.000 C 37.697,114.000 25.933,114.000 14.170,114.000 14.170,102.237 14.170,90.473 14.170,78.710 25.933,90.473 37.697,102.237 49.460,114.000 49.460,114.000 49.460,114.000 49.460,114.000 49.460,114.000 49.460,114.000 49.460,114.000 Z M 36.150,108.490 C 30.663,103.003 25.177,97.517 19.690,92.030 19.690,97.517 19.690,103.003 19.690,108.490 25.177,108.490 30.663,108.490 36.150,108.490 36.150,108.490 36.150,108.490 36.150,108.490 Z " />
  <path fill="currentColor"
    d="M 49.350,14.100 C 37.587,14.100 25.823,14.100 14.060,14.100 14.060,25.860 14.060,37.620 14.060,49.380 25.823,37.620 37.587,25.860 49.350,14.100 49.350,14.100 49.350,14.100 49.350,14.100 49.350,14.100 49.350,14.100 49.350,14.100 Z " />
  <path fill="currentColor"
    d="M 81.560,73.470 C 81.560,74.340 80.970,75.100 80.120,75.310 78.177,75.797 76.233,76.283 74.290,76.770 73.330,77.010 72.310,76.730 71.600,76.030 70.507,74.937 69.413,73.843 68.320,72.750 69.057,71.280 69.793,69.810 70.530,68.340 73.227,67.667 75.923,66.993 78.620,66.320 79.070,66.210 79.550,66.340 79.880,66.670 80.310,67.100 80.740,67.530 81.170,67.960 81.420,68.210 81.560,68.550 81.560,68.900 81.560,70.427 81.560,71.953 81.560,73.480 81.560,73.477 81.560,73.473 81.560,73.470 Z M 67.200,82.140 C 66.107,82.687 65.013,83.233 63.920,83.780 62.827,83.233 61.733,82.687 60.640,82.140 60.040,81.840 59.840,81.080 60.210,80.520 61.447,78.663 62.683,76.807 63.920,74.950 65.157,76.807 66.393,78.663 67.630,80.520 68.000,81.080 67.800,81.840 67.200,82.140 67.200,82.140 67.200,82.140 67.200,82.140 Z M 56.230,76.030 C 55.530,76.730 54.510,77.010 53.540,76.770 51.597,76.283 49.653,75.797 47.710,75.310 46.860,75.100 46.270,74.340 46.270,73.470 46.270,71.943 46.270,70.417 46.270,68.890 46.270,68.540 46.410,68.200 46.660,67.950 47.090,67.520 47.520,67.090 47.950,66.660 48.280,66.330 48.760,66.200 49.210,66.310 51.907,66.983 54.603,67.657 57.300,68.330 58.037,69.800 58.773,71.270 59.510,72.740 58.417,73.833 57.323,74.927 56.230,76.020 56.230,76.023 56.230,76.027 56.230,76.030 Z M 90.030,52.100 C 90.260,51.200 90.150,50.240 89.730,49.410 88.630,47.210 87.530,45.010 86.430,42.810 86.130,42.200 85.670,41.680 85.100,41.310 81.307,38.780 77.513,36.250 73.720,33.720 73.080,33.290 72.320,33.060 71.550,33.060 66.457,33.060 61.363,33.060 56.270,33.060 55.500,33.060 54.740,33.290 54.100,33.720 50.307,36.250 46.513,38.780 42.720,41.310 42.150,41.690 41.700,42.210 41.390,42.810 40.290,45.010 39.190,47.210 38.090,49.410 37.670,50.240 37.570,51.200 37.790,52.100 39.143,57.513 40.497,62.927 41.850,68.340 42.720,64.690 43.590,61.040 44.460,57.390 44.323,61.040 44.187,64.690 44.050,68.340 42.173,70.843 40.297,73.347 38.420,75.850 37.840,76.630 37.840,77.690 38.420,78.470 40.073,80.673 41.727,82.877 43.380,85.080 43.800,85.650 44.470,85.980 45.180,85.980 47.010,85.980 48.840,85.980 50.670,85.980 51.407,88.187 52.143,90.393 52.880,92.600 56.557,93.337 60.233,94.073 63.910,94.810 67.587,94.073 71.263,93.337 74.940,92.600 75.677,90.393 76.413,88.187 77.150,85.980 78.980,85.980 80.810,85.980 82.640,85.980 83.350,85.980 84.010,85.650 84.440,85.080 86.093,82.877 87.747,80.673 89.400,78.470 89.980,77.690 89.980,76.630 89.400,75.850 87.523,73.347 85.647,70.843 83.770,68.340 83.633,64.690 83.497,61.040 83.360,57.390 84.230,61.040 85.100,64.690 85.970,68.340 87.323,62.927 88.677,57.513 90.030,52.100 90.030,52.100 90.030,52.100 90.030,52.100 Z " />
</svg>