<svg viewBox="0 0 128 128" xmlns="http://www.w3.org/2000/svg">
  <path fill="currentColor"
    d="M 85.840,54.100 C 84.707,58.630 83.573,63.160 82.440,67.690 81.710,64.637 80.980,61.583 80.250,58.530 80.363,61.583 80.477,64.637 80.590,67.690 82.160,69.783 83.730,71.877 85.300,73.970 85.790,74.620 85.790,75.510 85.300,76.160 83.917,78.003 82.533,79.847 81.150,81.690 80.800,82.160 80.240,82.440 79.650,82.440 78.117,82.440 76.583,82.440 75.050,82.440 74.437,84.283 73.823,86.127 73.210,87.970 70.137,88.583 67.063,89.197 63.990,89.810 60.917,89.197 57.843,88.583 54.770,87.970 54.157,86.127 53.543,84.283 52.930,82.440 51.397,82.440 49.863,82.440 48.330,82.440 47.740,82.440 47.180,82.160 46.830,81.690 45.447,79.847 44.063,78.003 42.680,76.160 42.190,75.510 42.190,74.620 42.680,73.970 44.250,71.877 45.820,69.783 47.390,67.690 47.503,64.637 47.617,61.583 47.730,58.530 47.000,61.583 46.270,64.637 45.540,67.690 44.407,63.160 43.273,58.630 42.140,54.100 41.950,53.340 42.040,52.540 42.390,51.850 43.310,50.010 44.230,48.170 45.150,46.330 45.400,45.820 45.790,45.390 46.260,45.070 49.433,42.953 52.607,40.837 55.780,38.720 56.320,38.360 56.950,38.170 57.590,38.170 61.850,38.170 66.110,38.170 70.370,38.170 71.020,38.170 71.650,38.360 72.180,38.720 75.353,40.837 78.527,42.953 81.700,45.070 82.170,45.390 82.560,45.820 82.810,46.330 83.730,48.170 84.650,50.010 85.570,51.850 85.920,52.550 86.010,53.350 85.820,54.100 85.827,54.100 85.833,54.100 85.840,54.100 Z M 64.000,26.090 C 43.060,26.090 26.090,43.060 26.090,64.000 26.090,84.940 43.060,101.910 64.000,101.910 84.940,101.910 101.910,84.940 101.910,64.000 101.910,43.060 84.940,26.090 64.000,26.090 64.000,26.090 64.000,26.090 64.000,26.090 Z " />
  <path fill="currentColor"
    d="M 77.360,66.290 C 77.080,66.010 76.680,65.900 76.310,66.000 74.053,66.563 71.797,67.127 69.540,67.690 68.927,68.920 68.313,70.150 67.700,71.380 68.613,72.293 69.527,73.207 70.440,74.120 71.030,74.710 71.880,74.940 72.690,74.740 74.317,74.333 75.943,73.927 77.570,73.520 78.280,73.340 78.770,72.710 78.770,71.980 78.770,70.703 78.770,69.427 78.770,68.150 78.770,67.860 78.650,67.570 78.440,67.370 78.080,67.010 77.720,66.650 77.360,66.290 77.360,66.290 77.360,66.290 77.360,66.290 Z " />
  <path fill="currentColor"
    d="M 51.700,66.000 C 51.320,65.910 50.920,66.020 50.650,66.290 50.290,66.650 49.930,67.010 49.570,67.370 49.360,67.580 49.240,67.860 49.240,68.150 49.240,69.427 49.240,70.703 49.240,71.980 49.240,72.710 49.740,73.350 50.440,73.520 52.067,73.927 53.693,74.333 55.320,74.740 56.130,74.940 56.980,74.710 57.570,74.120 58.483,73.207 59.397,72.293 60.310,71.380 59.697,70.150 59.083,68.920 58.470,67.690 56.213,67.127 53.957,66.563 51.700,66.000 51.700,66.000 51.700,66.000 51.700,66.000 Z " />
  <path fill="currentColor"
    d="M 64.000,73.220 C 62.967,74.773 61.933,76.327 60.900,77.880 60.590,78.350 60.760,78.980 61.260,79.230 62.173,79.687 63.087,80.143 64.000,80.600 64.913,80.143 65.827,79.687 66.740,79.230 67.240,78.980 67.410,78.350 67.100,77.880 66.067,76.327 65.033,74.773 64.000,73.220 64.000,73.220 64.000,73.220 64.000,73.220 Z " />
  <path fill="currentColor"
    d="M 113.510,60.230 C 112.650,48.790 107.860,37.600 99.140,28.870 90.410,20.140 79.220,15.360 67.780,14.500 67.780,12.003 67.780,9.507 67.780,7.010 65.267,7.010 62.753,7.010 60.240,7.010 60.240,9.507 60.240,12.003 60.240,14.500 48.800,15.360 37.610,20.150 28.880,28.870 20.150,37.590 15.370,48.790 14.510,60.230 12.013,60.230 9.517,60.230 7.020,60.230 7.020,62.743 7.020,65.257 7.020,67.770 9.517,67.770 12.013,67.770 14.510,67.770 15.370,79.210 20.160,90.400 28.880,99.130 37.610,107.860 48.800,112.640 60.240,113.500 60.240,115.997 60.240,118.493 60.240,120.990 62.753,120.990 65.267,120.990 67.780,120.990 67.780,115.997 67.780,111.003 67.780,106.010 65.267,106.010 62.753,106.010 60.240,106.010 60.240,107.017 60.240,108.023 60.240,109.030 49.950,108.180 39.890,103.830 32.030,95.970 24.170,88.110 19.830,78.060 18.970,67.760 19.977,67.760 20.983,67.760 21.990,67.760 21.990,65.247 21.990,62.733 21.990,60.220 20.983,60.220 19.977,60.220 18.970,60.220 19.820,49.930 24.170,39.870 32.030,32.010 39.890,24.150 49.940,19.810 60.240,18.950 60.240,19.957 60.240,20.963 60.240,21.970 62.753,21.970 65.267,21.970 67.780,21.970 67.780,20.963 67.780,19.957 67.780,18.950 78.070,19.800 88.130,24.150 95.990,32.010 103.850,39.870 108.200,49.920 109.050,60.220 108.043,60.220 107.037,60.220 106.030,60.220 106.030,62.733 106.030,65.247 106.030,67.760 107.037,67.760 108.043,67.760 109.050,67.760 108.200,78.050 103.850,88.110 95.990,95.970 88.130,103.830 78.080,108.170 67.780,109.030 67.780,110.520 67.780,112.010 67.780,113.500 79.220,112.640 90.410,107.850 99.140,99.130 107.870,90.400 112.650,79.210 113.510,67.770 116.007,67.770 118.503,67.770 121.000,67.770 121.000,65.257 121.000,62.743 121.000,60.230 118.503,60.230 116.007,60.230 113.510,60.230 113.510,60.230 113.510,60.230 113.510,60.230 Z " />
</svg>