<svg viewBox="0 0 128 128" id="icon-mode-tactical-obliteration" xmlns="http://www.w3.org/2000/svg">
    <path
        d="m99.28 91.18-4.53-4.53-7.14-7.14c2.96-4.47 4.69-9.83 4.69-15.6s-1.63-10.82-4.44-15.21l7.16-7.16 4.55-4.55 4.63-4.63v-8.7l-7.77-.02-16.71 16.71c-4.5-3.02-9.92-4.78-15.75-4.78s-11.13 1.73-15.6 4.69L31.99 23.88h-8.7l-.02 7.77 5.2 5.2 4.54 4.54 7.15 7.15c-2.86 4.43-4.53 9.7-4.53 15.36s1.76 11.24 4.78 15.75l-7.14 7.14-4.53 4.53-5.26 5.26.02 8.23 8.26-.02L48.75 87.8c4.4 2.8 9.61 4.44 15.21 4.44s10.93-1.67 15.36-4.53l16.87 16.87 8.23-.02-.02-8.26-5.12-5.12zm-35.31-9.55c-9.78 0-17.73-7.95-17.73-17.73s7.95-17.73 17.73-17.73S81.7 54.13 81.7 63.9s-7.95 17.73-17.73 17.73zM80.4 24.44H47.51L63.96 8 80.4 24.44zm23.15 55.95 16.44-16.44-16.44-16.44V80.4zm11.31-16.44-7.67 7.67V56.28l7.67 7.67zM63.95 120l16.44-16.44H47.5L63.94 120zm0-5.14-7.67-7.67h15.34l-7.67 7.67zm-39.5-67.25L8.01 64.05l16.44 16.44V47.6zm-3.64 24.12-7.67-7.67 7.67-7.67v15.34z"
        fill="#fff"></path>
</svg>