<svg viewBox="0 0 128 128" id="icon-mode-tactical-obliteration-framed" xmlns="http://www.w3.org/2000/svg">
    <path
        d="M102.03 8.5v80.37L64 119.51 25.97 88.87V8.5l37.02 9.61 1.01.26 1.01-.26 37.02-9.61m4-5.17L64 14.24 21.97 3.33v87.46L64 124.65l42.03-33.86V3.33z"
        fill="currentColor"></path>
    <path
        d="m82.9 74.56-2.43-2.43-3.83-3.83c1.58-2.4 2.51-5.27 2.51-8.36s-.87-5.79-2.38-8.15l3.84-3.84 2.44-2.44 2.48-2.48v-4.66h-4.16l-8.95 8.95c-2.41-1.62-5.31-2.56-8.44-2.56s-5.96.93-8.36 2.51l-8.78-8.78h-4.66v4.16l2.79 2.79 2.43 2.43 3.83 3.83c-1.53 2.37-2.43 5.19-2.43 8.23s.94 6.02 2.56 8.44l-3.82 3.82-2.42 2.42-2.82 2.82v4.41h4.43l9.1-9.1c2.35 1.5 5.15 2.38 8.15 2.38s5.86-.89 8.23-2.43l9.04 9.04h4.41V77.3l-2.75-2.75zm-18.92-5.11c-5.24 0-9.5-4.26-9.5-9.5s4.26-9.5 9.5-9.5 9.5 4.26 9.5 9.5-4.26 9.5-9.5 9.5zm8.81-30.64H55.17L63.98 30l8.81 8.81zm12.4 29.97L94 59.97l-8.81-8.81v17.62zm6.06-8.81-4.11 4.11v-8.22l4.11 4.11zM63.97 90l8.81-8.81H55.16L63.97 90zm0-2.75-4.11-4.11h8.22l-4.11 4.11zM42.81 51.22 34 60.03l8.81 8.81V51.22zm-1.95 12.92-4.11-4.11 4.11-4.11v8.22z"
        fill="currentColor"></path>
</svg>