<svg viewBox="0 0 128 128" id="icon-mode-tdm-framed" xmlns="http://www.w3.org/2000/svg">
    <g fill="currentColor">
        <path
            d="m34.61 64 29.36-29.39L93.4 64 63.97 93.39 34.61 64zM63 90.44l26.25-26.59L63 38.03v8.51h-2.39c-1.11 0-2.19.33-3.12.94l-5.05 3.37c-.81.54-1.47 1.29-1.91 2.16l-1.46 2.93c-.6 1.2-.75 2.58-.43 3.88l1.6 6.39-.66.88a4.875 4.875 0 0 0 0 5.83l2.2 2.93a4.939 4.939 0 0 0 3.54 1.94l.82 2.45L63 81.43v9.01z">
        </path>
        <path
            d="M63.96 36.02 91.97 64 63.96 91.98l-.54-.55 2-2.03 23.83-24.15 1.41-1.43-1.43-1.4L65.4 38.98l-2.22-2.18.78-.78M62 37.99v7.55h-1.39c-1.31 0-2.58.38-3.67 1.11l-5.05 3.37c-.96.64-1.74 1.52-2.25 2.55l-1.46 2.93a6.63 6.63 0 0 0-.5 4.57L49.16 66l-.37.49a5.895 5.895 0 0 0 0 7.03l2.2 2.93a5.944 5.944 0 0 0 3.59 2.25l.43 1.29.38 1.13 1.18.2 5.44.94V90L36.03 63.99l25.98-26.01m1.95-4.79L33.19 64l30.77 30.81L94.81 64 63.96 33.19zM55.69 76.8c-1.22 0-2.38-.58-3.11-1.55l-2.2-2.94a3.885 3.885 0 0 1 0-4.63l.94-1.26-1.71-6.85c-.27-1.07-.14-2.2.35-3.19l1.46-2.93c.36-.72.9-1.33 1.57-1.78l5.05-3.37a4.59 4.59 0 0 1 2.56-.78h3.39V40.4l23.83 23.44-23.83 24.15v-7.41l-7.1-1.23-.85-2.55h-.36z">
        </path>
        <path
            d="m59.95 75.65-1.01-3.02h-3.12l-2.15-2.88 1.62-2.13v.54c0 .84.57 1.57 1.38 1.77l2.55.64a2.215 2.215 0 0 0 2.12-.58l1.94-1.94-1.49-2.98-3.98-.99a1.563 1.563 0 0 0-1.43.35l.12-3.24-1.97-.27-.19.8-.78-3.12a.753.753 0 0 1 .05-.49l1.44-2.88c.05-.11.14-.2.24-.27l4.97-3.31a.69.69 0 0 1 .39-.12h6.67c.14 0 .28.04.39.12l4.97 3.31c.1.07.18.16.24.27l1.44 2.88c.08.15.09.32.05.49l-.78 3.12-.19-.8-1.97.27.12 3.24a1.563 1.563 0 0 0-1.43-.35l-3.98 1-1.49 2.98L66.63 70a2.215 2.215 0 0 0 2.12.58l2.54-.64c.82-.21 1.39-.93 1.39-1.77v-.52l1.62 2.16-2.17 2.83h-3.1l-1.01 3.01-4.05.81-4.05-.81zm1.6-4.96a1.497 1.497 0 0 0 .57 2.16l1.88.94 1.88-.94a1.497 1.497 0 0 0 .57-2.16L64 67.01l-2.45 3.68z">
        </path>
        <path
            d="m67.25 52.52 4.83 3.22 1.36 2.71-.61 2.44-2.33.32.07 1.8c-.21 0-.42.03-.62.08l-3.53.88-.89.22-.41.82-.52 1.04-.58-.87-.58.87-.52-1.04-.41-.82-.89-.22-3.53-.88c-.2-.05-.41-.08-.62-.08l.07-1.8-2.33-.32-.61-2.45 1.36-2.71 4.83-3.22h6.49m5.27 17.93-.89 1.18h-3.11c.16-.02.31-.04.46-.08l2.54-.64c.37-.09.7-.25.99-.47m-17.09.01c.29.21.63.37.99.47l2.54.64c.15.04.31.06.46.08h-3.11l-.89-1.18M67.7 71.6c.17.03.35.04.53.04h.1l-.45 1.35-.6 1.79-3.28.66-3.28-.66-.6-1.79-.45-1.35h.1c.18 0 .36-.01.53-.04 0 .18.03.37.08.55.18.69.65 1.27 1.29 1.59l1.43.72.89.45.89-.45 1.43-.72c.64-.32 1.11-.9 1.29-1.59.05-.18.08-.37.08-.55m-.35-21.08h-6.67c-.34 0-.67.1-.95.29l-4.97 3.31c-.25.16-.45.39-.58.66l-1.44 2.88c-.18.36-.23.78-.13 1.18l1.77 7.09 1.14-4.78-.18 4.78-2.46 3.28a.96.96 0 0 0 0 1.14l2.17 2.89c.18.25.48.39.78.39h2.4l.96 2.89 4.81.96 4.81-.96.96-2.89h2.4c.31 0 .6-.15.78-.39l2.17-2.89a.96.96 0 0 0 0-1.14l-2.46-3.28-.18-4.78 1.14 4.78 1.77-7.09c.1-.39.05-.81-.13-1.18l-1.44-2.88c-.13-.27-.33-.49-.58-.66l-4.97-3.31c-.28-.19-.61-.29-.95-.29zm.9 19.12c-.32 0-.64-.13-.87-.36l-1.43-1.43.96-1.93 3.53-.88s.09-.02.14-.02c.15 0 .3.06.41.17l.56.56c.11.11.17.26.17.41v2c0 .38-.26.71-.63.8l-2.54.64c-.1.02-.2.04-.3.04zm-8.46 0c-.1 0-.2-.01-.3-.04l-2.54-.64a.823.823 0 0 1-.63-.8v-2c0-.15.06-.3.17-.41l.56-.56c.11-.11.26-.17.41-.17.05 0 .09 0 .14.02l3.53.88.96 1.93-1.43 1.43c-.23.23-.55.36-.87.36zM64 72.66l-1.43-.72a.494.494 0 0 1-.19-.71L64 68.8l1.62 2.43c.16.24.07.57-.19.71l-1.43.72z">
        </path>
    </g>
    <path
        d="m64.03 7.74 38 17.59v76.94l-38 17.98-38.05-17.98V25.33L64.03 7.74m0-4.41L21.97 22.77v82.03l42.05 19.87 42-19.87V22.77L64.03 3.33z"
        fill="currentColor"></path>
</svg>