<svg viewBox="0 0 128 128" xmlns="http://www.w3.org/2000/svg">
  <path fill="currentColor"
    d="M 63.000,110.840 C 78.503,95.133 94.007,79.427 109.510,63.720 94.007,48.470 78.503,33.220 63.000,17.970 63.000,22.827 63.000,27.683 63.000,32.540 61.243,32.540 59.487,32.540 57.730,32.540 55.840,32.540 54.010,33.100 52.430,34.140 49.313,36.217 46.197,38.293 43.080,40.370 41.700,41.290 40.570,42.560 39.830,44.050 38.927,45.857 38.023,47.663 37.120,49.470 36.100,51.510 35.840,53.850 36.400,56.060 37.417,60.133 38.433,64.207 39.450,68.280 38.963,68.927 38.477,69.573 37.990,70.220 35.830,73.090 35.830,77.110 37.990,79.980 39.347,81.790 40.703,83.600 42.060,85.410 43.580,87.450 46.010,88.670 48.550,88.690 49.060,90.227 49.570,91.763 50.080,93.300 54.380,94.043 58.680,94.787 62.980,95.530 62.980,100.633 62.980,105.737 62.980,110.840 62.987,110.840 62.993,110.840 63.000,110.840 Z M 8.410,64.000 C 26.917,45.470 45.423,26.940 63.930,8.410 82.480,26.940 101.030,45.470 119.580,64.000 101.030,82.530 82.480,101.060 63.930,119.590 45.423,101.060 26.917,82.530 8.410,64.000 8.410,64.000 8.410,64.000 8.410,64.000 Z " />
  <path fill="currentColor"
    d="M 48.620,87.690 C 46.370,87.690 44.220,86.610 42.870,84.810 41.513,83.000 40.157,81.190 38.800,79.380 36.910,76.860 36.910,73.340 38.800,70.820 39.380,70.047 39.960,69.273 40.540,68.500 39.483,64.273 38.427,60.047 37.370,55.820 36.880,53.840 37.100,51.750 38.020,49.920 38.923,48.113 39.827,46.307 40.730,44.500 41.390,43.170 42.400,42.030 43.640,41.210 46.757,39.133 49.873,37.057 52.990,34.980 54.400,34.040 56.040,33.540 57.730,33.540 59.820,33.540 61.910,33.540 64.000,33.540 64.000,29.147 64.000,24.753 64.000,20.360 78.700,34.817 93.400,49.273 108.100,63.730 93.400,78.623 78.700,93.517 64.000,108.410 64.000,103.837 64.000,99.263 64.000,94.690 59.620,93.933 55.240,93.177 50.860,92.420 50.337,90.847 49.813,89.273 49.290,87.700 49.070,87.700 48.850,87.700 48.630,87.700 48.627,87.697 48.623,87.693 48.620,87.690 Z M 63.930,7.000 C 44.953,26.000 25.977,45.000 7.000,64.000 25.977,83.000 44.953,102.000 63.930,121.000 82.953,102.000 101.977,83.000 121.000,64.000 101.977,45.000 82.953,26.000 63.930,7.000 63.930,7.000 63.930,7.000 63.930,7.000 63.930,7.000 63.930,7.000 63.930,7.000 Z M 62.000,31.540 C 60.577,31.540 59.153,31.540 57.730,31.540 55.640,31.540 53.620,32.150 51.880,33.310 48.763,35.387 45.647,37.463 42.530,39.540 41.000,40.560 39.760,41.960 38.940,43.600 38.037,45.407 37.133,47.213 36.230,49.020 35.100,51.270 34.820,53.860 35.430,56.300 36.410,60.220 37.390,64.140 38.370,68.060 37.980,68.580 37.590,69.100 37.200,69.620 34.780,72.850 34.780,77.360 37.200,80.580 38.557,82.390 39.913,84.200 41.270,86.010 42.840,88.100 45.240,89.420 47.830,89.650 48.207,90.780 48.583,91.910 48.960,93.040 49.087,93.417 49.213,93.793 49.340,94.170 49.733,94.237 50.127,94.303 50.520,94.370 54.347,95.030 58.173,95.690 62.000,96.350 62.000,101.987 62.000,107.623 62.000,113.260 63.140,112.103 64.280,110.947 65.420,109.790 80.120,94.897 94.820,80.003 109.520,65.110 109.990,64.633 110.460,64.157 110.930,63.680 110.453,63.213 109.977,62.747 109.500,62.280 94.800,47.823 80.100,33.367 65.400,18.910 64.267,17.793 63.133,16.677 62.000,15.560 62.000,20.877 62.000,26.193 62.000,31.510 M 63.930,9.830 C 82.010,27.887 100.090,45.943 118.170,64.000 100.090,82.057 82.010,100.113 63.930,118.170 45.897,100.113 27.863,82.057 9.830,64.000 27.863,45.943 45.897,27.887 63.930,9.830 " />
  <path fill="currentColor"
    d="M 60.170,76.850 C 59.870,77.300 59.770,77.860 59.910,78.390 60.050,78.920 60.410,79.360 60.900,79.600 61.933,80.117 62.967,80.633 64.000,81.150 65.033,80.633 66.067,80.117 67.100,79.600 67.590,79.360 67.950,78.910 68.090,78.390 68.230,77.860 68.140,77.300 67.840,76.850 66.563,74.937 65.287,73.023 64.010,71.110 62.733,73.023 61.457,74.937 60.180,76.850 60.177,76.850 60.173,76.850 60.170,76.850 Z M 55.860,86.290 C 55.250,84.463 54.640,82.637 54.030,80.810 52.310,80.810 50.590,80.810 48.870,80.810 48.620,80.810 48.370,80.690 48.220,80.480 46.883,78.700 45.547,76.920 44.210,75.140 44.010,74.870 44.010,74.490 44.210,74.220 45.720,72.207 47.230,70.193 48.740,68.180 48.740,69.353 48.740,70.527 48.740,71.700 48.740,72.870 49.530,73.880 50.660,74.160 52.230,74.553 53.800,74.947 55.370,75.340 55.630,75.410 55.900,75.440 56.170,75.440 57.050,75.440 57.870,75.100 58.490,74.480 59.543,73.427 60.597,72.373 61.650,71.320 60.880,69.780 60.110,68.240 59.340,66.700 57.013,66.117 54.687,65.533 52.360,64.950 52.190,64.910 52.030,64.890 51.860,64.890 51.310,64.890 50.780,65.110 50.390,65.500 50.043,65.847 49.697,66.193 49.350,66.540 49.200,66.690 49.080,66.860 48.980,67.040 49.083,64.280 49.187,61.520 49.290,58.760 48.633,58.670 47.977,58.580 47.320,58.490 46.933,60.110 46.547,61.730 46.160,63.350 45.397,60.300 44.633,57.250 43.870,54.200 43.750,53.700 43.800,53.170 44.030,52.710 44.920,50.933 45.810,49.157 46.700,47.380 46.870,47.040 47.120,46.760 47.430,46.550 50.497,44.507 53.563,42.463 56.630,40.420 56.980,40.180 57.400,40.060 57.830,40.060 61.943,40.060 66.057,40.060 70.170,40.060 70.600,40.060 71.010,40.180 71.370,40.420 74.437,42.463 77.503,44.507 80.570,46.550 80.880,46.760 81.130,47.040 81.300,47.380 82.190,49.157 83.080,50.933 83.970,52.710 84.200,53.170 84.260,53.700 84.130,54.200 83.367,57.250 82.603,60.300 81.840,63.350 81.453,61.730 81.067,60.110 80.680,58.490 80.023,58.580 79.367,58.670 78.710,58.760 78.813,61.520 78.917,64.280 79.020,67.040 78.930,66.860 78.800,66.690 78.650,66.540 78.303,66.193 77.957,65.847 77.610,65.500 77.220,65.110 76.700,64.890 76.150,64.890 75.980,64.890 75.810,64.910 75.650,64.950 73.323,65.533 70.997,66.117 68.670,66.700 67.900,68.240 67.130,69.780 66.360,71.320 67.413,72.373 68.467,73.427 69.520,74.480 70.130,75.090 70.980,75.440 71.840,75.440 72.110,75.440 72.380,75.410 72.630,75.340 74.200,74.947 75.770,74.553 77.340,74.160 78.470,73.880 79.260,72.870 79.260,71.700 79.260,70.527 79.260,69.353 79.260,68.180 80.770,70.193 82.280,72.207 83.790,74.220 83.990,74.490 83.990,74.870 83.790,75.140 82.453,76.920 81.117,78.700 79.780,80.480 79.630,80.680 79.380,80.810 79.130,80.810 77.410,80.810 75.690,80.810 73.970,80.810 73.360,82.637 72.750,84.463 72.140,86.290 69.427,86.833 66.713,87.377 64.000,87.920 61.287,87.377 58.573,86.833 55.860,86.290 55.860,86.290 55.860,86.290 55.860,86.290 Z " />
  <path fill="currentColor"
    d="M 64.000,80.030 C 63.117,79.587 62.233,79.143 61.350,78.700 60.870,78.460 60.700,77.850 61.000,77.400 62.000,75.900 63.000,74.400 64.000,72.900 65.000,74.400 66.000,75.900 67.000,77.400 67.300,77.850 67.140,78.460 66.650,78.700 65.767,79.143 64.883,79.587 64.000,80.030 64.000,80.030 64.000,80.030 64.000,80.030 64.000,80.030 64.000,80.030 64.000,80.030 Z M 56.170,74.440 C 55.990,74.440 55.800,74.420 55.620,74.370 54.050,73.977 52.480,73.583 50.910,73.190 50.230,73.020 49.750,72.410 49.750,71.700 49.750,70.467 49.750,69.233 49.750,68.000 49.750,67.720 49.860,67.440 50.060,67.240 50.407,66.893 50.753,66.547 51.100,66.200 51.300,66.000 51.580,65.890 51.860,65.890 51.950,65.890 52.030,65.900 52.120,65.920 54.300,66.463 56.480,67.007 58.660,67.550 59.253,68.737 59.847,69.923 60.440,71.110 59.557,71.993 58.673,72.877 57.790,73.760 57.360,74.190 56.770,74.430 56.170,74.430 56.170,74.430 56.170,74.430 56.170,74.430 56.170,74.433 56.170,74.437 56.170,74.440 Z M 71.830,74.440 C 71.230,74.440 70.650,74.200 70.210,73.770 69.327,72.887 68.443,72.003 67.560,71.120 68.153,69.933 68.747,68.747 69.340,67.560 71.520,67.017 73.700,66.473 75.880,65.930 75.970,65.910 76.050,65.900 76.140,65.900 76.420,65.900 76.690,66.010 76.900,66.210 77.247,66.557 77.593,66.903 77.940,67.250 78.140,67.450 78.250,67.720 78.250,68.010 78.250,69.243 78.250,70.477 78.250,71.710 78.250,72.410 77.770,73.030 77.090,73.200 75.520,73.593 73.950,73.987 72.380,74.380 72.200,74.430 72.010,74.450 71.830,74.450 71.830,74.450 71.830,74.450 71.830,74.450 71.830,74.447 71.830,74.443 71.830,74.440 Z M 70.170,39.060 C 66.057,39.060 61.943,39.060 57.830,39.060 57.210,39.060 56.600,39.240 56.080,39.590 53.013,41.633 49.947,43.677 46.880,45.720 46.420,46.020 46.050,46.440 45.810,46.930 44.920,48.707 44.030,50.483 43.140,52.260 42.800,52.930 42.720,53.710 42.900,54.440 43.993,58.813 45.087,63.187 46.180,67.560 46.883,64.613 47.587,61.667 48.290,58.720 48.180,61.667 48.070,64.613 47.960,67.560 46.443,69.583 44.927,71.607 43.410,73.630 42.940,74.260 42.940,75.120 43.410,75.750 44.747,77.530 46.083,79.310 47.420,81.090 47.760,81.550 48.300,81.820 48.870,81.820 50.350,81.820 51.830,81.820 53.310,81.820 53.903,83.600 54.497,85.380 55.090,87.160 58.060,87.753 61.030,88.347 64.000,88.940 66.970,88.347 69.940,87.753 72.910,87.160 73.503,85.380 74.097,83.600 74.690,81.820 76.170,81.820 77.650,81.820 79.130,81.820 79.700,81.820 80.240,81.550 80.580,81.090 81.917,79.310 83.253,77.530 84.590,75.750 85.060,75.120 85.060,74.260 84.590,73.630 83.073,71.607 81.557,69.583 80.040,67.560 79.930,64.613 79.820,61.667 79.710,58.720 80.413,61.667 81.117,64.613 81.820,67.560 82.913,63.187 84.007,58.813 85.100,54.440 85.280,53.710 85.200,52.940 84.860,52.260 83.970,50.483 83.080,48.707 82.190,46.930 81.940,46.440 81.570,46.020 81.120,45.720 78.053,43.677 74.987,41.633 71.920,39.590 71.400,39.240 70.790,39.060 70.170,39.060 70.170,39.060 70.170,39.060 70.170,39.060 70.170,39.060 70.170,39.060 70.170,39.060 Z M 80.250,71.190 C 81.127,72.357 82.003,73.523 82.880,74.690 81.600,76.400 80.320,78.110 79.040,79.820 77.110,79.820 75.180,79.820 73.250,79.820 73.097,80.277 72.943,80.733 72.790,81.190 72.320,82.603 71.850,84.017 71.380,85.430 68.920,85.923 66.460,86.417 64.000,86.910 61.540,86.417 59.080,85.923 56.620,85.430 56.150,84.017 55.680,82.603 55.210,81.190 55.057,80.733 54.903,80.277 54.750,79.820 52.820,79.820 50.890,79.820 48.960,79.820 47.680,78.110 46.400,76.400 45.120,74.690 45.997,73.523 46.873,72.357 47.750,71.190 47.750,71.363 47.750,71.537 47.750,71.710 47.750,73.330 48.850,74.750 50.430,75.140 52.000,75.533 53.570,75.927 55.140,76.320 55.480,76.400 55.830,76.450 56.180,76.450 57.320,76.450 58.400,76.000 59.210,75.190 60.083,74.317 60.957,73.443 61.830,72.570 61.003,73.810 60.177,75.050 59.350,76.290 58.890,76.980 58.750,77.840 58.960,78.640 59.170,79.440 59.720,80.120 60.470,80.490 61.353,80.933 62.237,81.377 63.120,81.820 63.417,81.970 63.713,82.120 64.010,82.270 64.307,82.120 64.603,81.970 64.900,81.820 65.783,81.377 66.667,80.933 67.550,80.490 68.290,80.120 68.840,79.440 69.060,78.640 69.270,77.840 69.130,76.980 68.670,76.290 67.843,75.050 67.017,73.810 66.190,72.570 67.063,73.443 67.937,74.317 68.810,75.190 69.620,76.000 70.700,76.440 71.840,76.440 72.190,76.440 72.540,76.400 72.880,76.310 74.450,75.917 76.020,75.523 77.590,75.130 79.170,74.740 80.270,73.330 80.270,71.700 80.270,71.527 80.270,71.353 80.270,71.180 M 70.170,41.060 C 70.400,41.060 70.620,41.130 70.810,41.250 73.877,43.293 76.943,45.337 80.010,47.380 80.180,47.490 80.310,47.650 80.400,47.820 81.290,49.597 82.180,51.373 83.070,53.150 83.190,53.400 83.220,53.680 83.160,53.950 82.730,55.677 82.300,57.403 81.870,59.130 81.800,58.837 81.730,58.543 81.660,58.250 80.347,58.430 79.033,58.610 77.720,58.790 77.790,60.680 77.860,62.570 77.930,64.460 77.410,64.090 76.800,63.900 76.160,63.900 75.910,63.900 75.660,63.930 75.420,63.990 73.240,64.533 71.060,65.077 68.880,65.620 68.583,65.693 68.287,65.767 67.990,65.840 67.853,66.113 67.717,66.387 67.580,66.660 66.987,67.847 66.393,69.033 65.800,70.220 65.637,70.550 65.473,70.880 65.310,71.210 64.883,70.570 64.457,69.930 64.030,69.290 63.603,69.930 63.177,70.570 62.750,71.210 62.587,70.880 62.423,70.550 62.260,70.220 61.667,69.033 61.073,67.847 60.480,66.660 60.343,66.387 60.207,66.113 60.070,65.840 59.773,65.767 59.477,65.693 59.180,65.620 57.000,65.077 54.820,64.533 52.640,63.990 52.400,63.930 52.150,63.900 51.890,63.900 51.250,63.900 50.630,64.100 50.120,64.460 50.190,62.570 50.260,60.680 50.330,58.790 49.017,58.610 47.703,58.430 46.390,58.250 46.320,58.543 46.250,58.837 46.180,59.130 45.750,57.403 45.320,55.677 44.890,53.950 44.820,53.680 44.850,53.400 44.980,53.150 45.870,51.373 46.760,49.597 47.650,47.820 47.740,47.640 47.870,47.490 48.040,47.380 51.107,45.337 54.173,43.293 57.240,41.250 57.430,41.120 57.650,41.060 57.880,41.060 61.993,41.060 66.107,41.060 70.220,41.060 " />
</svg>