<svg viewBox="0 0 32 32" xmlns="http://www.w3.org/2000/svg">
    <path fill="currentColor"
        d="m19.07 6.57 2.12 2.12L5.25 24.63l2.12 2.12 15.84-15.84 2.83 2.83 3.54-3.54-3.39-3.3-.75-.75-4.68-1.28-1.69 1.69v.01Z">
    </path>
    <path fill="currentColor"
        d="m24.84 28.37.71-.7-2.83-2.83 1.41-1.42.71-.7 2.83 2.83.7-.71-2.12-3.54-2.12-.7h-1.41l-3.54-3.54-2.12 2.12 3.54 3.54v1.41l.7 2.12 3.54 2.12ZM7.16 3.63l-.71.7 2.83 2.83-1.41 1.42-.71.7-2.83-2.83-.7.71 2.12 3.54 2.12.7h1.41l3.54 3.54 2.12-2.12-3.54-3.54V7.87l-.7-2.12-3.54-2.12Z">
    </path>
</svg>