<svg xmlns="http://www.w3.org/2000/svg" viewBox="0 0 24 24" fill="#000" id="icon-support">
    <path fill="#000" d="m15.117 4.987 2.966 2.966a.403.403 0 0 0 .283.117H23.8c.11 0 .2.09.2.2v5.6a.2.2 0 0 1-.2.2h-5.889a.2.2 0 0 1-.141-.059l-8.711-8.71A.2.2 0 0 1 9 5.158v-5.89c0-.11.09-.2.2-.2h5.6c.11 0 .2.09.2.2v5.435a.4.4 0 0 0 .116.283ZM8.882 17.152l-2.965-2.965a.401.401 0 0 0-.283-.117H.2a.2.2 0 0 1-.2-.2v-5.6c0-.11.09-.2.2-.2h5.888c.053 0 .104.02.141.058l8.711 8.711a.2.2 0 0 1 .059.142v5.889a.2.2 0 0 1-.2.2h-5.6a.2.2 0 0 1-.2-.2v-5.435a.4.4 0 0 0-.117-.283Z"></path>
</svg>