<svg xmlns="http://www.w3.org/2000/svg"  viewBox="0 0 24 24" fill="#fff" id="icon-engineer">
    <g fill="#fff" clip-path="url(#icon-engineer_a)">
        <path d="M.031 8.49 5.927-.838h.001a.2.2 0 0 1 .17-.093h9.358a.2.2 0 0 1 .179.29l-2.206 4.4a.198.198 0 0 1-.178.11h-4.4a.4.4 0 0 0-.338.186l-4.298 6.8a.4.4 0 0 0 0 .427l2.975 4.706a.2.2 0 0 1 .01.196l-2.303 4.593a.2.2 0 0 1-.348.018L.031 13.65A.197.197 0 0 1 0 13.543V8.596c0-.038.011-.075.031-.107Zm19.422-7.146L23.97 8.49h-.001c.02.033.031.07.031.108v4.946a.202.202 0 0 1-.031.107l-5.896 9.326a.199.199 0 0 1-.169.093H8.545a.2.2 0 0 1-.178-.29l2.206-4.4a.198.198 0 0 1 .178-.11h4.399a.4.4 0 0 0 .338-.186l4.299-6.8a.4.4 0 0 0 0-.427l-2.975-4.706a.2.2 0 0 1-.01-.197l2.303-4.592a.2.2 0 0 1 .348-.018Z"></path>
        </g><defs><clipPath id="icon-engineer_a"><path fill="#fff" d="M0-.93h24v24H0z"></path>
        </clipPath></defs>
</svg>