<svg xmlns="http://www.w3.org/2000/svg" viewBox="0 0 24 24" fill="#fff" id="icon-recon">
    <g fill="#fff" clip-path="url(#icon-recon_a)">
        <path d="M.058 2.211 3.142-.872a.2.2 0 0 1 .141-.058H9.4c.11 0 .2.09.2.2v4.4a.2.2 0 0 1-.2.2H5.2a.4.4 0 0 0-.4.4v4.2a.2.2 0 0 1-.2.2H.2a.2.2 0 0 1-.2-.2V2.353a.2.2 0 0 1 .058-.142Zm20.8-3.083 3.084 3.083a.2.2 0 0 1 .058.142V8.47a.2.2 0 0 1-.2.2h-4.4a.2.2 0 0 1-.2-.2v-4.2a.4.4 0 0 0-.4-.4h-4.2a.2.2 0 0 1-.2-.2v-4.4c0-.11.09-.2.2-.2h6.117a.2.2 0 0 1 .141.058ZM3.142 23.011.058 19.928A.2.2 0 0 1 0 19.787V13.67c0-.11.09-.2.2-.2h4.4c.11 0 .2.09.2.2v4.2c0 .22.18.4.4.4h4.2c.11 0 .2.09.2.2v4.4a.2.2 0 0 1-.2.2H3.283a.2.2 0 0 1-.141-.059Zm17.716 0 3.084-3.083a.2.2 0 0 0 .058-.141V13.67a.2.2 0 0 0-.2-.2h-4.4a.2.2 0 0 0-.2.2v4.2a.4.4 0 0 1-.4.4h-4.2a.2.2 0 0 0-.2.2v4.4c0 .11.09.2.2.2h6.117a.2.2 0 0 0 .141-.059Z"></path>
    </g>
    <defs>
        <clipPath id="icon-recon_a">
            <path fill="#fff" d="M0-.93h24v24H0z"></path>
        </clipPath>
    </defs>
</svg>