<svg width="483" height="167" viewBox="0 0 483 167" fill="none" xmlns="http://www.w3.org/2000/svg">
<rect width="483" height="167" fill="#151829"/>
<mask id="mask0_1040_43" style="mask-type:alpha" maskUnits="userSpaceOnUse" x="0" y="0" width="483" height="167">
<rect width="483" height="167" fill="#151829"/>
</mask>
<g mask="url(#mask0_1040_43)">
<path d="M181.803 79.8171C112.6 104.025 107.192 174.789 107.192 174.789L273.04 244.283L365.631 183.951C314.1 87.6722 257.274 53.4159 181.803 79.8171Z" fill="url(#paint0_linear_1040_43)"/>
<path d="M287.652 29.1274C336.271 5.22871 462.025 35.6638 462.025 35.6638L386.537 224.052L144 166.777C217.296 139.752 206.704 68.9183 287.652 29.1274Z" fill="url(#paint1_linear_1040_43)"/>
<path d="M327.757 89.275C279.63 89.7322 192 164.117 192 164.117L540.5 206.5L496.733 141.119C427.776 148.953 407.886 88.5138 327.757 89.275Z" fill="url(#paint2_linear_1040_43)"/>
</g>
<path d="M177.521 82.0447H179.547C179.106 79.4943 176.926 77.7301 174.101 77.7301C170.713 77.7301 168.24 80.2805 168.24 84.4609C168.24 88.603 170.643 91.179 174.191 91.179C177.367 91.179 179.637 89.0952 179.637 85.7905V84.3011H174.491V85.9311H177.725C177.681 88.0405 176.287 89.3764 174.191 89.3764C171.883 89.3764 170.202 87.6314 170.202 84.4482C170.202 81.2777 171.896 79.5327 174.114 79.5327C175.853 79.5327 177.029 80.4915 177.521 82.0447ZM187.255 91L188.457 87.5355H193.571L194.766 91H196.863L192.152 77.9091H189.87L185.159 91H187.255ZM189.032 85.8736L190.963 80.2869H191.065L192.996 85.8736H189.032ZM203.163 77.9091V91H205.042V81.5206H205.164L209.025 90.9808H210.584L214.445 81.527H214.567V91H216.446V77.9091H214.049L209.881 88.0852H209.728L205.56 77.9091H203.163ZM223.727 91H232.012V89.2997H225.703V85.2919H231.507V83.598H225.703V79.6094H231.935V77.9091H223.727V91ZM238.338 79.6094H242.416V91H244.384V79.6094H248.469V77.9091H238.338V79.6094ZM265.944 84.4545C265.944 80.2678 263.439 77.7301 260.051 77.7301C256.65 77.7301 254.151 80.2678 254.151 84.4545C254.151 88.6349 256.65 91.179 260.051 91.179C263.439 91.179 265.944 88.6413 265.944 84.4545ZM263.988 84.4545C263.988 87.6442 262.301 89.3764 260.051 89.3764C257.794 89.3764 256.113 87.6442 256.113 84.4545C256.113 81.2649 257.794 79.5327 260.051 79.5327C262.301 79.5327 263.988 81.2649 263.988 84.4545ZM284.188 84.4545C284.188 80.2678 281.683 77.7301 278.295 77.7301C274.894 77.7301 272.395 80.2678 272.395 84.4545C272.395 88.6349 274.894 91.179 278.295 91.179C281.683 91.179 284.188 88.6413 284.188 84.4545ZM282.232 84.4545C282.232 87.6442 280.545 89.3764 278.295 89.3764C276.038 89.3764 274.357 87.6442 274.357 84.4545C274.357 81.2649 276.038 79.5327 278.295 79.5327C280.545 79.5327 282.232 81.2649 282.232 84.4545ZM291.061 91H298.968V89.2997H293.036V77.9091H291.061V91ZM312.771 81.348H314.676C314.618 79.2514 312.764 77.7301 310.105 77.7301C307.478 77.7301 305.465 79.2322 305.465 81.4886C305.465 83.3104 306.769 84.3778 308.872 84.9467L310.419 85.3686C311.818 85.7393 312.899 86.1996 312.899 87.3629C312.899 88.6413 311.678 89.4851 309.997 89.4851C308.475 89.4851 307.21 88.8075 307.095 87.3821H305.113C305.241 89.7536 307.076 91.2173 310.009 91.2173C313.084 91.2173 314.855 89.6001 314.855 87.3821C314.855 85.0234 312.752 84.1094 311.09 83.7003L309.811 83.3679C308.789 83.1058 307.427 82.6264 307.434 81.3736C307.434 80.2614 308.45 79.4368 310.061 79.4368C311.563 79.4368 312.63 80.1399 312.771 81.348Z" fill="white"/>
<defs>
<linearGradient id="paint0_linear_1040_43" x1="289.723" y1="14.2912" x2="205.253" y2="215.879" gradientUnits="userSpaceOnUse">
<stop stop-color="#14FED4"/>
<stop offset="1" stop-color="#6D61F2" stop-opacity="0"/>
</linearGradient>
<linearGradient id="paint1_linear_1040_43" x1="188.634" y1="55.3884" x2="417.391" y2="147.052" gradientUnits="userSpaceOnUse">
<stop stop-color="#14FED4"/>
<stop offset="1" stop-color="#6D61F2" stop-opacity="0"/>
</linearGradient>
<linearGradient id="paint2_linear_1040_43" x1="416.82" y1="70.5593" x2="271.913" y2="234.676" gradientUnits="userSpaceOnUse">
<stop stop-color="#5446F0"/>
<stop offset="1" stop-color="#14FED4" stop-opacity="0"/>
</linearGradient>
</defs>
</svg>
