<svg width="483" height="167" viewBox="0 0 483 167" fill="none" xmlns="http://www.w3.org/2000/svg">
<rect width="483" height="167" fill="#151829"/>
<mask id="mask0_2267_82" style="mask-type:alpha" maskUnits="userSpaceOnUse" x="0" y="0" width="483" height="167">
<rect width="483" height="167" fill="#151829"/>
</mask>
<g mask="url(#mask0_2267_82)">
<path d="M181.803 79.8171C112.6 104.025 107.192 174.789 107.192 174.789L273.04 244.283L365.631 183.951C314.1 87.6722 257.274 53.4159 181.803 79.8171Z" fill="url(#paint0_linear_2267_82)"/>
<path d="M287.652 29.1274C336.271 5.22871 462.025 35.6638 462.025 35.6638L386.537 224.052L144 166.777C217.296 139.752 206.703 68.9183 287.652 29.1274Z" fill="url(#paint1_linear_2267_82)"/>
<path d="M327.757 89.275C279.63 89.7322 192 164.117 192 164.117L540.5 206.5L496.733 141.119C427.776 148.953 407.886 88.5138 327.757 89.275Z" fill="url(#paint2_linear_2267_82)"/>
</g>
<path d="M156.206 81.0597C156.041 80.5426 155.82 80.0795 155.541 79.6705C155.269 79.2557 154.942 78.9034 154.561 78.6136C154.181 78.3182 153.746 78.0937 153.257 77.9403C152.774 77.7869 152.243 77.7102 151.664 77.7102C150.681 77.7102 149.794 77.9631 149.004 78.4688C148.215 78.9744 147.59 79.7159 147.129 80.6932C146.675 81.6648 146.448 82.8551 146.448 84.2642C146.448 85.679 146.678 86.875 147.138 87.8523C147.598 88.8295 148.229 89.571 149.03 90.0767C149.831 90.5824 150.743 90.8352 151.766 90.8352C152.715 90.8352 153.541 90.642 154.246 90.2557C154.956 89.8693 155.504 89.3239 155.891 88.6193C156.283 87.9091 156.479 87.0739 156.479 86.1136L157.161 86.2415H152.166V84.0682H159.027V86.054C159.027 87.5199 158.715 88.7926 158.09 89.8722C157.47 90.946 156.612 91.7756 155.516 92.3608C154.425 92.946 153.175 93.2386 151.766 93.2386C150.186 93.2386 148.8 92.875 147.607 92.1477C146.419 91.4205 145.493 90.3892 144.828 89.054C144.164 87.7131 143.831 86.1222 143.831 84.2812C143.831 82.8892 144.024 81.6392 144.411 80.5312C144.797 79.4233 145.34 78.483 146.039 77.7102C146.743 76.9318 147.57 76.3381 148.519 75.929C149.473 75.5142 150.516 75.3068 151.647 75.3068C152.59 75.3068 153.468 75.446 154.28 75.7244C155.098 76.0028 155.826 76.3977 156.462 76.9091C157.104 77.4205 157.635 78.0284 158.056 78.733C158.476 79.4318 158.76 80.2074 158.908 81.0597H156.206ZM169.186 93H166.39L172.671 75.5455H175.714L181.995 93H179.2L174.265 78.7159H174.129L169.186 93ZM169.654 86.1648H178.723V88.3807H169.654V86.1648ZM190.396 75.5455H193.592L199.149 89.1136H199.353L204.91 75.5455H208.106V93H205.6V80.3693H205.439L200.291 92.9744H198.211L193.064 80.3608H192.902V93H190.396V75.5455ZM217.815 93V75.5455H228.758V77.8125H220.448V83.1307H228.187V85.3892H220.448V90.733H228.86V93H217.815ZM237.295 77.8125V75.5455H250.804V77.8125H245.358V93H242.733V77.8125H237.295ZM274.081 84.2727C274.081 86.1364 273.74 87.7386 273.058 89.0795C272.376 90.4148 271.441 91.4432 270.254 92.1648C269.072 92.8807 267.728 93.2386 266.223 93.2386C264.711 93.2386 263.362 92.8807 262.174 92.1648C260.993 91.4432 260.061 90.4119 259.379 89.071C258.697 87.7301 258.356 86.1307 258.356 84.2727C258.356 82.4091 258.697 80.8097 259.379 79.4744C260.061 78.1335 260.993 77.1051 262.174 76.3892C263.362 75.6676 264.711 75.3068 266.223 75.3068C267.728 75.3068 269.072 75.6676 270.254 76.3892C271.441 77.1051 272.376 78.1335 273.058 79.4744C273.74 80.8097 274.081 82.4091 274.081 84.2727ZM271.473 84.2727C271.473 82.8523 271.243 81.6562 270.782 80.6847C270.328 79.7074 269.703 78.9688 268.907 78.4688C268.118 77.9631 267.223 77.7102 266.223 77.7102C265.217 77.7102 264.319 77.9631 263.53 78.4688C262.74 78.9688 262.115 79.7074 261.655 80.6847C261.2 81.6562 260.973 82.8523 260.973 84.2727C260.973 85.6932 261.2 86.892 261.655 87.8693C262.115 88.8409 262.74 89.5795 263.53 90.0852C264.319 90.5852 265.217 90.8352 266.223 90.8352C267.223 90.8352 268.118 90.5852 268.907 90.0852C269.703 89.5795 270.328 88.8409 270.782 87.8693C271.243 86.892 271.473 85.6932 271.473 84.2727ZM298.406 84.2727C298.406 86.1364 298.065 87.7386 297.383 89.0795C296.701 90.4148 295.767 91.4432 294.579 92.1648C293.397 92.8807 292.054 93.2386 290.548 93.2386C289.037 93.2386 287.687 92.8807 286.5 92.1648C285.318 91.4432 284.386 90.4119 283.704 89.071C283.022 87.7301 282.682 86.1307 282.682 84.2727C282.682 82.4091 283.022 80.8097 283.704 79.4744C284.386 78.1335 285.318 77.1051 286.5 76.3892C287.687 75.6676 289.037 75.3068 290.548 75.3068C292.054 75.3068 293.397 75.6676 294.579 76.3892C295.767 77.1051 296.701 78.1335 297.383 79.4744C298.065 80.8097 298.406 82.4091 298.406 84.2727ZM295.798 84.2727C295.798 82.8523 295.568 81.6562 295.108 80.6847C294.653 79.7074 294.028 78.9688 293.233 78.4688C292.443 77.9631 291.548 77.7102 290.548 77.7102C289.542 77.7102 288.645 77.9631 287.855 78.4688C287.065 78.9688 286.44 79.7074 285.98 80.6847C285.525 81.6562 285.298 82.8523 285.298 84.2727C285.298 85.6932 285.525 86.892 285.98 87.8693C286.44 88.8409 287.065 89.5795 287.855 90.0852C288.645 90.5852 289.542 90.8352 290.548 90.8352C291.548 90.8352 292.443 90.5852 293.233 90.0852C294.028 89.5795 294.653 88.8409 295.108 87.8693C295.568 86.892 295.798 85.6932 295.798 84.2727ZM307.569 93V75.5455H310.203V90.733H318.112V93H307.569ZM336.516 80.1307C336.425 79.3239 336.05 78.6989 335.391 78.2557C334.732 77.8068 333.902 77.5824 332.902 77.5824C332.187 77.5824 331.567 77.696 331.045 77.9233C330.522 78.1449 330.116 78.4517 329.826 78.8438C329.542 79.2301 329.4 79.6705 329.4 80.1648C329.4 80.5795 329.496 80.9375 329.689 81.2386C329.888 81.5398 330.147 81.7926 330.465 81.9972C330.789 82.196 331.135 82.3636 331.505 82.5C331.874 82.6307 332.229 82.7386 332.57 82.8239L334.275 83.267C334.831 83.4034 335.402 83.5881 335.988 83.821C336.573 84.054 337.116 84.3608 337.616 84.7415C338.116 85.1222 338.519 85.5938 338.826 86.1562C339.138 86.7188 339.295 87.392 339.295 88.1761C339.295 89.1648 339.039 90.0426 338.527 90.8097C338.022 91.5767 337.286 92.1818 336.32 92.625C335.36 93.0682 334.198 93.2898 332.834 93.2898C331.527 93.2898 330.397 93.0824 329.442 92.6676C328.488 92.2528 327.741 91.6648 327.201 90.9034C326.661 90.1364 326.363 89.2273 326.306 88.1761H328.948C328.999 88.8068 329.204 89.3324 329.562 89.7528C329.925 90.1676 330.388 90.4773 330.951 90.6818C331.519 90.8807 332.141 90.9801 332.817 90.9801C333.562 90.9801 334.224 90.8636 334.803 90.6307C335.388 90.392 335.849 90.0625 336.184 89.642C336.519 89.2159 336.687 88.7187 336.687 88.1506C336.687 87.6335 336.539 87.2102 336.243 86.8807C335.954 86.5511 335.559 86.2784 335.059 86.0625C334.564 85.8466 334.005 85.6562 333.38 85.4915L331.317 84.929C329.92 84.5483 328.812 83.9886 327.993 83.25C327.181 82.5114 326.775 81.5341 326.775 80.3182C326.775 79.3125 327.047 78.4347 327.593 77.6847C328.138 76.9347 328.877 76.3523 329.809 75.9375C330.741 75.517 331.792 75.3068 332.962 75.3068C334.144 75.3068 335.187 75.5142 336.09 75.929C336.999 76.3438 337.715 76.9148 338.238 77.642C338.76 78.3636 339.033 79.1932 339.056 80.1307H336.516Z" fill="white"/>
<defs>
<linearGradient id="paint0_linear_2267_82" x1="289.723" y1="14.2912" x2="205.253" y2="215.879" gradientUnits="userSpaceOnUse">
<stop stop-color="#14FED4"/>
<stop offset="1" stop-color="#6D61F2" stop-opacity="0"/>
</linearGradient>
<linearGradient id="paint1_linear_2267_82" x1="188.634" y1="55.3884" x2="417.391" y2="147.052" gradientUnits="userSpaceOnUse">
<stop stop-color="#14FED4"/>
<stop offset="1" stop-color="#6D61F2" stop-opacity="0"/>
</linearGradient>
<linearGradient id="paint2_linear_2267_82" x1="416.82" y1="70.5593" x2="271.913" y2="234.676" gradientUnits="userSpaceOnUse">
<stop stop-color="#5446F0"/>
<stop offset="1" stop-color="#14FED4" stop-opacity="0"/>
</linearGradient>
</defs>
</svg>
