<?xml version="1.0" encoding="UTF-8"?>
<!-- Generator: Adobe Illustrator 25.1.0, SVG Export Plug-In . SVG Version: 6.00 Build 0)  -->
<svg version="1.1" id="Layer_1" xmlns="http://www.w3.org/2000/svg" xmlns:xlink="http://www.w3.org/1999/xlink" x="0px" y="0px" width="15px" height="15px" viewBox="0 0 15 15" enable-background="new 0 0 15 15" xml:space="preserve">
<g id="BG_1_" display="none">
	<rect display="inline" width="15" height="15"/>
</g>
<g>
	<path fill="none" d="M7.5,5.5c-1.1,0-2,0.9-2,2s0.9,2,2,2c1.1,0,2-0.9,2-2S8.6,5.5,7.5,5.5z"/>
	<path fill="#FFFFFF" d="M13.3,5.8L15,5c-0.8-2.3-2.6-4.2-5-5L9.2,1.7C11.2,2.2,12.8,3.8,13.3,5.8z"/>
	<path fill="#FFFFFF" d="M9.2,13.3L10,15c2.3-0.8,4.2-2.6,5-5l-1.7-0.9C12.8,11.2,11.2,12.8,9.2,13.3z"/>
	<path fill="#FFFFFF" d="M1.7,9.2L0,10c0.8,2.3,2.6,4.2,5,5l0.9-1.7C3.8,12.8,2.2,11.2,1.7,9.2z"/>
	<path fill="#FFFFFF" d="M5.8,1.7L5,0C2.6,0.8,0.8,2.6,0,5l1.7,0.9C2.2,3.8,3.8,2.2,5.8,1.7z"/>
	<path fill="#FFFFFF" d="M11.3,8.1l-1.1-0.6l1.1-0.6C11,5.3,9.7,4,8.1,3.7L7.5,4.8L6.9,3.7C5.3,4,4,5.3,3.7,6.9l1.1,0.6L3.7,8.1   C4,9.7,5.3,11,6.9,11.3l0.6-1.1l0.6,1.1C9.7,11,11,9.7,11.3,8.1z M7.5,9.5c-1.1,0-2-0.9-2-2s0.9-2,2-2c1.1,0,2,0.9,2,2   S8.6,9.5,7.5,9.5z"/>
</g>
</svg>