<svg id="BF3_-_ALX" data-name="BF3 - ALX" xmlns="http://www.w3.org/2000/svg" width="40" height="40" viewBox="0 0 40 40">
  <path id="BF3_-_Recon" data-name="BF3 - Recon" d="M34.8042,22.2279a14.8845,14.8845,0,0,1-12.7294,12.63L22.1582,39H17.6876l.0843-4.1861A14.885,14.885,0,0,1,5.329,22.0711L1,22.1582V17.6876l4.3844.0883A14.8859,14.8859,0,0,1,17.93,5.3942L17.8418,1h4.4706l-.0885,4.3942A14.8851,14.8851,0,0,1,34.7925,17.9265L39,17.8418v4.4706Zm-7.289-4.1549,5.3328-.1073A12.9593,12.9593,0,0,0,22.1848,7.338l-.1037,5.1468-2.004,5.0872L18.073,12.4848,17.9694,7.338A12.96,12.96,0,0,0,7.3321,17.8151l5.1527.1038,5.0872,2.004L12.4848,21.927l-5.2154.105A12.959,12.959,0,0,0,17.8111,32.867l.1078-5.3518,2.004-5.0872,2.0041,5.0872.1087,5.4024A12.959,12.959,0,0,0,32.8612,22.1888l-5.346-.1077-5.0872-2.004Z" fill="#fff" fill-rule="evenodd"/>
</svg>