<svg id="_1942_-_GRA" data-name="1942 - GRA" xmlns="http://www.w3.org/2000/svg" width="40" height="40" viewBox="0 0 40 40">
  <g id="_1942_-_Medic_-_final" data-name="1942 - Medic - final">
    <g id="updated-2" data-name="updated">
      <path d="M38.4722,13H27V1.5278A.5278.5278,0,0,0,26.4722,1H13.5278A.5278.5278,0,0,0,13,1.5278V13H1.5278A.5278.5278,0,0,0,1,13.5278V26.4722A.5278.5278,0,0,0,1.5278,27H13V38.4722A.5278.5278,0,0,0,13.5278,39H26.4722A.5278.5278,0,0,0,27,38.4722V27H38.4722A.5278.5278,0,0,0,39,26.4722V13.5278A.5278.5278,0,0,0,38.4722,13Z" fill="#fff" fill-rule="evenodd"/>
    </g>
  </g>
</svg>