<?xml version="1.0" encoding="UTF-8"?>
<!-- Generator: Adobe Illustrator 25.1.0, SVG Export Plug-In . SVG Version: 6.00 Build 0)  -->
<svg version="1.1" id="Layer_1" xmlns="http://www.w3.org/2000/svg" xmlns:xlink="http://www.w3.org/1999/xlink" x="0px" y="0px" width="15px" height="15px" viewBox="0 0 15 15" enable-background="new 0 0 15 15" xml:space="preserve">
<g id="BG_1_" display="none">
	<rect display="inline" width="15" height="15"/>
</g>
<path fill="#FFFFFF" d="M12.8,9c-0.2,0.7-0.5,1.3-0.9,1.8L9.7,8.6C9.9,8.3,10,7.9,10,7.5S9.9,6.7,9.7,6.4l2.2-2.2  c0.4,0.5,0.7,1.1,0.9,1.8h2.1C14.2,3.1,11.9,0.7,9,0.2v2.1c0.7,0.2,1.3,0.5,1.8,0.9L8.6,5.3C8.3,5.1,7.9,5,7.5,5  C7.1,5,6.7,5.1,6.4,5.3L4.2,3.1C4.7,2.7,5.3,2.4,6,2.2V0.2C3.1,0.8,0.7,3.1,0.2,6h2.1c0.2-0.7,0.5-1.3,0.9-1.8l2.2,2.2  C5.1,6.7,5,7.1,5,7.5s0.1,0.8,0.3,1.1l-2.2,2.2C2.7,10.3,2.4,9.7,2.2,9H0.2c0.6,2.9,2.9,5.2,5.8,5.8v-2.1c-0.7-0.2-1.3-0.5-1.8-0.9  l2.2-2.2C6.7,9.9,7.1,10,7.5,10c0.4,0,0.8-0.1,1.1-0.3l2.2,2.2c-0.5,0.4-1.1,0.7-1.8,0.9v2.1c2.9-0.6,5.3-2.9,5.8-5.8H12.8z"/>
</svg>