<?xml version="1.0" encoding="UTF-8"?>
<!-- Generator: Adobe Illustrator 26.3.1, SVG Export Plug-In . SVG Version: 6.00 Build 0)  -->
<svg version="1.1" xmlns="http://www.w3.org/2000/svg" xmlns:xlink="http://www.w3.org/1999/xlink" x="0px" y="0px" width="40px" height="40px" viewBox="0 0 40 40" enable-background="new 0 0 40 40" xml:space="preserve">
<g id="BG" display="none">
	<rect display="inline" opacity="0.5" width="40" height="40"/>
</g>
<g id="Workfile" display="none">
	<rect x="0" display="inline" opacity="0.25" width="40" height="40"/>
	<path display="inline" fill="none" stroke="#FFFFFF" stroke-width="5" stroke-miterlimit="10" d="M5,20c0,8.3,6.7,15,15,15   s15-6.7,15-15"/>
	<path display="inline" fill="none" stroke="#FFFFFF" stroke-width="5" stroke-miterlimit="10" d="M35,20c0-8.3-6.7-15-15-15   S5,11.7,5,20"/>
	<polygon display="inline" fill="#404040" points="16,20 0,20 0,40 6,40  "/>
	<polygon display="inline" fill="#404040" points="24,20 40,20 40,0 34,0  "/>
	<polygon display="inline" fill="#FFFFFF" points="10,18 0,18 5,28  "/>
	<polygon display="inline" fill="#FFFFFF" points="30,22 40,22 35,12  "/>
	<polygon display="inline" fill="#FFFFFF" points="20,11 20,23 14,23  "/>
	<polygon display="inline" fill="#FFFFFF" points="20,29 20,17 26,17  "/>
</g>
<g id="Expanded">
	<path fill="#FFFFFF" d="M20,0C9,0,0,9,0,20s9,20,20,20c11,0,20-9,20-20S31,0,20,0z M28.4,9.6c2.4-1.4,5.4-0.6,6.7,1.8   c1.4,2.4,0.6,5.4-1.8,6.7c-2.4,1.4-5.4,0.6-6.7-1.8C25.2,14,26,10.9,28.4,9.6z M11.6,30.7c-2.4,1.4-5.4,0.6-6.7-1.8   c-1.4-2.4-0.6-5.4,1.8-6.7c2.4-1.4,5.4-0.6,6.7,1.8C14.8,26.3,14,29.3,11.6,30.7z M13.4,16.3c-1.4,2.4-4.4,3.2-6.7,1.8   c-2.4-1.4-3.2-4.4-1.8-6.7C6.2,9,9.3,8.2,11.6,9.6C14,10.9,14.8,14,13.4,16.3z M20,37.6c-2.7,0-4.9-2.2-4.9-4.9s2.2-4.9,4.9-4.9   c2.7,0,4.9,2.2,4.9,4.9S22.7,37.6,20,37.6z M20,12.5c-2.7,0-4.9-2.2-4.9-4.9s2.2-4.9,4.9-4.9c2.7,0,4.9,2.2,4.9,4.9   S22.7,12.5,20,12.5z M35.1,28.9c-1.4,2.4-4.4,3.2-6.7,1.8c-2.4-1.4-3.2-4.4-1.8-6.7c1.4-2.4,4.4-3.2,6.7-1.8   C35.7,23.5,36.5,26.5,35.1,28.9z"/>
</g>
</svg>