<svg id="BC2_-_RUM" data-name="BC2 - RUM" xmlns="http://www.w3.org/2000/svg" width="40" height="40" viewBox="0 0 40 40">
  <g id="BC2_-_Recoon" data-name="BC2 - Recoon">
    <path id="BC2_-_Recoon-2" data-name="BC2 - Recoon" d="M38.7683,18.9573H34.0958A14.1337,14.1337,0,0,0,21.0427,5.9079V1.2317A.2317.2317,0,0,0,20.811,1H19.189a.2317.2317,0,0,0-.2317.2317V5.9079A14.1337,14.1337,0,0,0,5.9042,18.9573H1.2317A.2317.2317,0,0,0,1,19.189v1.622a.2317.2317,0,0,0,.2317.2317H5.9042A14.1337,14.1337,0,0,0,18.9573,34.0921v4.6762A.2317.2317,0,0,0,19.189,39h1.622a.2317.2317,0,0,0,.2317-.2317V34.0921A14.1337,14.1337,0,0,0,34.0958,21.0427h4.6725A.2317.2317,0,0,0,39,20.811V19.189A.2317.2317,0,0,0,38.7683,18.9573ZM20,29.79A9.79,9.79,0,1,1,29.79,20,9.79,9.79,0,0,1,20,29.79Zm-1.6687-8.7469H11.6674a8.4007,8.4007,0,0,0,7.29,7.2905V21.6657A1.9839,1.9839,0,0,1,18.3313,21.0427Zm-6.6639-2.0854h6.6639a1.9839,1.9839,0,0,1,.626-.623V11.6668A8.4007,8.4007,0,0,0,11.6674,18.9573Zm9.3753,2.7084v6.6675a8.4007,8.4007,0,0,0,7.29-7.2905H21.6687A1.9839,1.9839,0,0,1,21.0427,21.6657Zm0-9.9989v6.6675a1.9839,1.9839,0,0,1,.626.623h6.6639A8.4007,8.4007,0,0,0,21.0427,11.6668Z" fill="#fff" fill-rule="evenodd"/>
  </g>
</svg>