<svg id="_1942_-_GRA" data-name="1942 - GRA" xmlns="http://www.w3.org/2000/svg" width="40" height="40" viewBox="0 0 40 40">
  <g id="_1942_-_Scout" data-name="1942 - Scout">
    <path id="_1942_-_Scout-2" data-name=" 1942 - Scout" d="M34.9227,17.15A15.23,15.23,0,0,0,22.85,5.0773V1h-5.7V5.0773A15.23,15.23,0,0,0,5.0773,17.15H1v5.7H5.0773A15.23,15.23,0,0,0,17.15,34.9227V39h5.7V34.9227A15.23,15.23,0,0,0,34.9227,22.85H39v-5.7ZM22.85,31.0249V27.6h-5.7v3.4248A11.4217,11.4217,0,0,1,8.9752,22.85H12.4v-5.7H8.9753A11.4218,11.4218,0,0,1,17.15,8.9753V12.4h5.7V8.9752A11.4217,11.4217,0,0,1,31.0248,17.15H27.6v5.7h3.4249A11.4216,11.4216,0,0,1,22.85,31.0249ZM23.5889,19.99a3.6005,3.6005,0,1,1-3.6005-3.6005h0A3.6005,3.6005,0,0,1,23.5889,19.99Z" fill="#fff" fill-rule="evenodd"/>
  </g>
</svg>