<svg id="BF3_-_ALX" data-name="BF3 - ALX" xmlns="http://www.w3.org/2000/svg" width="40" height="40" viewBox="0 0 40 40">
  <path id="BF3_-_Support" data-name="BF3 - Support" d="M35.3617,36.9648V39H26.8863V36.9648l.7667-.2718V35.6057h-.711v-19.3C26.942,8.0257,30.2876,1,31.124,1s4.182,7.0257,4.182,15.3059v19.3h-.711V36.693ZM15.7623,39V36.9648l.7667-.2718V35.6057h-.7109v-19.3C15.8181,8.0257,19.1636,1,20,1s4.1819,7.0257,4.1819,15.3059v19.3H23.471V36.693l.7667.2718V39H15.7623ZM4.6383,39V36.9648l.7667-.2718V35.6057H4.694v-19.3C4.694,8.0257,8.04,1,8.876,1s4.182,7.0257,4.182,15.3059v19.3h-.711V36.693l.7667.2718V39H4.6383Z" fill="#fff" fill-rule="evenodd"/>
</svg>