<?xml version="1.0" encoding="UTF-8"?>
<!-- Generator: Adobe Illustrator 25.0.1, SVG Export Plug-In . SVG Version: 6.00 Build 0)  -->
<svg version="1.1" id="Layer_1" xmlns="http://www.w3.org/2000/svg" xmlns:xlink="http://www.w3.org/1999/xlink" x="0px" y="0px" viewBox="0 0 15 15" enable-background="new 0 0 15 15" xml:space="preserve">
<g id="BG" display="none">
	<rect display="inline" opacity="0.5" enable-background="new    " width="15" height="15"/>
</g>
<path fill="#FFFFFF" d="M3.9,3.1l0.9-2.9C2.3,1.1,0.4,3.3,0,6h2.1C2.4,4.8,3,3.8,3.9,3.1z M2.1,8.4H0c0.4,2.2,1.6,4,3.4,5.1l0.6-2.1  C3.1,10.7,2.4,9.6,2.1,8.4z M14.9,6c-0.3-1.8-1.2-3.3-2.5-4.4l-1,2C12,4.2,12.5,5,12.7,6H14.9z M8.5,12.5v2.1c3.3-0.5,5.9-3,6.4-6.2  h-2.1C12.2,10.5,10.6,12.1,8.5,12.5z M10.8,6.3H8L11.1,0H6.8L4.5,7.6h2.7L4.9,15L10.8,6.3z"/>
</svg>