<svg id="_1942_-_GRA" data-name="1942 - GRA" xmlns="http://www.w3.org/2000/svg" width="40" height="40" viewBox="0 0 40 40">
  <g id="_1942_-_Engineer" data-name="1942 - Engineer">
    <g id="updated">
      <path id="_1942_-_Engineer-2" data-name=" 1942 - Engineer" d="M38.8546,15.4053a4.6985,4.6985,0,0,0-.64-1.6056l-9.1664,6.9532a7.5893,7.5893,0,0,1-5.7817-3.1623c-2.9055-3.6125-1.61-6.137-1.61-6.137l8.3985-7.047a6.097,6.097,0,0,0-1.9437-1.0625c-1.215-.2681-3.27-.8457-8.2453.1174A12.4272,12.4272,0,0,0,9.9807,13.33c-.6905,3.4291.5346,6.3642,2.2148,8.961L1,37.0737H16.335l5.0243-6.8694a13.2666,13.2666,0,0,0,9.0612.876C36.4167,29.8659,39.755,21.1571,38.8546,15.4053Z" fill="#fff" fill-rule="evenodd"/>
    </g>
  </g>
</svg>