<svg id="BC2_-_RUM" data-name="BC2 - RUM" xmlns="http://www.w3.org/2000/svg" width="40" height="40" viewBox="0 0 40 40">
  <g id="BC2_-_Engineer" data-name="BC2 - Engineer">
    <path d="M3.2965,11.6968l6.2344,6.2343,6.7552-1.645,1.645-6.7552L11.6968,3.2965c-.8176-.8176-1.0275-1.0151-1.5332-1.56A10.3207,10.3207,0,0,1,21.1092,4.3087c4.5992,4.5991,3.1623,8.2844,3.2624,10.2284s.2,3.4787,1.12,4.3986l13.3,13.3c.5383.5383.7,2.7483-1.5542,5.0021s-4.58,1.9761-5.0021,1.5542c-1.7375-1.7374-12.38-12.38-13.3-13.3s-2.4546-1.02-4.3986-1.12S8.9079,25.7083,4.3087,21.1092a10.57,10.57,0,0,1-2.6814-11C2.1723,10.6148,2.4789,10.8792,3.2965,11.6968Z" fill="#fff" fill-rule="evenodd"/>
  </g>
</svg>