<?xml version="1.0" encoding="UTF-8"?>
<!-- Generator: Adobe Illustrator 25.1.0, SVG Export Plug-In . SVG Version: 6.00 Build 0)  -->
<svg version="1.1" id="Layer_1" xmlns="http://www.w3.org/2000/svg" xmlns:xlink="http://www.w3.org/1999/xlink" x="0px" y="0px" width="15px" height="15px" viewBox="0 0 15 15" enable-background="new 0 0 15 15" xml:space="preserve">
<g id="BG" display="none">
	<rect display="inline" opacity="0.5" enable-background="new    " width="15" height="15"/>
</g>
<g>
	<path fill="#FFFFFF" d="M13.5,12.5V6L13,5.5c0,0,0-3.5-1-4.5c-1,1-1,4.5-1,4.5L10.5,6v6.5c0,0.1,0.4,0.2,0.5,0.3   c-0.1,0.1-0.5,0.2-0.5,0.3c0,0.2,0.7,0.5,1.5,0.5c0.8,0,1.5-0.3,1.5-0.5c0-0.1-0.4-0.2-0.5-0.3C13.1,12.7,13.5,12.6,13.5,12.5z"/>
	<path fill="#FFFFFF" d="M7.8,0.1L7.8,0.1L7.8,0.1C7.6,0,7.4,0,7.3,0.1C6.5,1,6.5,4.4,6.5,5L6,5.5V14l0.5,0.3c0,0-0.5,0.2-0.5,0.3   C6,14.7,6.5,15,7.5,15S9,14.7,9,14.5c0-0.1-0.5-0.3-0.5-0.3L9,14V5.5L8.5,5C8.5,4.4,8.5,1,7.8,0.1z"/>
	<path fill="#FFFFFF" d="M3,1C2,2,2,5.5,2,5.5L1.5,6v6.5c0,0.1,0.4,0.2,0.5,0.3c-0.1,0.1-0.5,0.2-0.5,0.3c0,0.2,0.7,0.5,1.5,0.5   c0.8,0,1.5-0.3,1.5-0.5c0-0.1-0.4-0.2-0.5-0.3c0.1,0,0.5-0.2,0.5-0.3V6L4,5.5C4,5.5,4,2,3,1z"/>
</g>
</svg>