<?xml version="1.0" encoding="UTF-8"?>
<!-- Generator: Adobe Illustrator 25.1.0, SVG Export Plug-In . SVG Version: 6.00 Build 0)  -->
<svg version="1.1" id="Layer_1" xmlns="http://www.w3.org/2000/svg" xmlns:xlink="http://www.w3.org/1999/xlink" x="0px" y="0px" width="15px" height="15px" viewBox="0 0 15 15" enable-background="new 0 0 15 15" xml:space="preserve">
<g id="BG_1_" display="none">
	<rect display="inline" width="15" height="15"/>
</g>
<g>
	<path fill="#FFFFFF" d="M12.9,8.7c-0.5,2.1-2.2,3.7-4.3,4.1V15c3.3-0.5,5.9-3,6.4-6.3H12.9z"/>
	<path fill="#FFFFFF" d="M2.2,8.7H0.1C0.6,12,3.3,14.6,6.6,15v-2.1C4.4,12.5,2.7,10.8,2.2,8.7z"/>
	<path fill="#FFFFFF" d="M6.6,6.9c0.4,0.4,0.6,0.6,0.9,0.9c0.4-0.4,0.6-0.6,0.9-0.9V0H6.6V6.9z"/>
	<path fill="#FFFFFF" d="M4.8,2.7V0.4C2.2,1.4,0.3,3.8,0,6.7h2.1C2.4,5,3.4,3.6,4.8,2.7z"/>
	<path fill="#FFFFFF" d="M12.9,6.7H15c-0.3-2.9-2.2-5.3-4.8-6.3v2.4C11.6,3.6,12.6,5,12.9,6.7z"/>
</g>
</svg>