<svg id="BC2_-_RUM" data-name="BC2 - RUM" xmlns="http://www.w3.org/2000/svg" width="40" height="40" viewBox="0 0 40 40">
  <g id="BC2_-_Medic" data-name="BC2 - Medic">
    <path d="M38.6752,15.9286H24.0714V1.3248A.3163.3163,0,0,0,23.7642,1H16.2358a.3163.3163,0,0,0-.3072.3248V15.9286H1.3248A.3163.3163,0,0,0,1,16.2358v7.5284a.3163.3163,0,0,0,.3248.3072H15.9286V38.6752A.3163.3163,0,0,0,16.2358,39h7.5284a.3163.3163,0,0,0,.3072-.3248V24.0714H38.6752A.3163.3163,0,0,0,39,23.7642V16.2358A.3163.3163,0,0,0,38.6752,15.9286Z" fill="#fff" fill-rule="evenodd"/>
  </g>
</svg>